<?xml version="1.0" encoding="UTF-8" standalone="no"?>
<svg
   width="1884.7457"
   height="1803.0865"
   viewBox="0 0 1884.7457 1803.0866"
   version="1.1"
   id="svg97"
   sodipodi:docname="pointing-1.svg"
   inkscape:version="1.3.2 (091e20e, 2023-11-25)"
   xmlns:inkscape="http://www.inkscape.org/namespaces/inkscape"
   xmlns:sodipodi="http://sodipodi.sourceforge.net/DTD/sodipodi-0.dtd"
   xmlns="http://www.w3.org/2000/svg"
   xmlns:svg="http://www.w3.org/2000/svg">
  <defs
     id="defs97" />
  <sodipodi:namedview
     id="namedview97"
     pagecolor="#ffffff"
     bordercolor="#666666"
     borderopacity="1.0"
     inkscape:showpageshadow="2"
     inkscape:pageopacity="0.0"
     inkscape:pagecheckerboard="0"
     inkscape:deskcolor="#d1d1d1"
     inkscape:zoom="0.15294709"
     inkscape:cx="1271.6816"
     inkscape:cy="1395.9076"
     inkscape:window-width="1512"
     inkscape:window-height="916"
     inkscape:window-x="0"
     inkscape:window-y="38"
     inkscape:window-maximized="1"
     inkscape:current-layer="svg97" />
  <title
     id="title1">pointing</title>
  <g
     id="Page-1"
     stroke="none"
     stroke-width="1"
     fill="none"
     fill-rule="evenodd"
     transform="translate(149.15254,598.25754)">
    <g
       id="hugo"
       transform="translate(127,84)"
       fill-rule="nonzero">
      <path
         d="m 28.4,912.2 c 49.2,2.2 98.4,3.3 147.6,3.2 1.9,0 1.9,-3 0,-3 -49.2,0.1 -98.4,-1 -147.6,-3.2 -1.9,-0.1 -1.9,2.9 0,3 z M 179,837.8 c 7.7,28.9 14.9,58 21.5,87.2 0.4,1.9 3.3,1.1 2.9,-0.8 -6.7,-29.2 -13.8,-58.3 -21.5,-87.2 -0.5,-1.8 -3.4,-1 -2.9,0.8 z m 134,2.2 c -2.8,27.5 -5.6,55.1 -8.3,82.6 -0.2,1.9 2.8,1.9 3,0 2.8,-27.5 5.6,-55.1 8.3,-82.6 0.1,-1.9 -2.9,-1.9 -3,0 z"
         id="Shape"
         fill="#e8e8e8" />
      <path
         d="m 201.3,927.7 c 17.5,3.1 35.2,4.5 53,4 17,-0.5 35.6,-1.8 51.8,-7.2 1.8,-0.6 1,-3.5 -0.8,-2.9 -16.1,5.3 -34.2,6.6 -51,7.1 -17.5,0.5 -35,-0.9 -52.2,-3.9 -1.9,-0.4 -2.7,2.5 -0.8,2.9 z m -21.1,-88.9 c 20.7,5.8 43.2,5.9 64.6,6 23,0.2 46,-1.1 68.8,-3.7 1.9,-0.2 1.9,-3.2 0,-3 -22.2,2.6 -44.5,3.8 -66.8,3.7 -21.7,-0.1 -44.7,-0.1 -65.8,-5.9 -1.9,-0.5 -2.7,2.4 -0.8,2.9 z"
         id="path1"
         fill="#e8e8e8" />
      <path
         d="m 171.6,828.5 c 0.2,1.9 0.4,3.9 0.6,5.8 0.1,1.2 0.1,2.7 0.6,3.8 1.2,2.6 5.2,1.7 7.5,1.7 1.9,0 1.9,-3 0,-3 h -3.4 c -1.5,0 -1.5,-0.3 -1.6,-1.8 -0.2,-2.2 -0.4,-4.3 -0.6,-6.5 -0.3,-1.9 -3.3,-2 -3.1,0 z"
         id="Path"
         fill="#e8e8e8" />
      <path
         d="m 173.6,830.1 c 25,2.9 50.1,4.3 75.3,4.5 12.4,0.1 24.8,-0.1 37.3,-0.5 6.2,-0.2 12.4,-0.5 18.6,-0.8 2.9,-0.1 6.9,-1.1 9.8,-0.5 3.5,0.6 3.3,3.6 3.7,6.7 0.3,-0.6 0.7,-1.2 1,-1.8 h -3.9 c -1.9,-0.4 -2.7,2.5 -0.8,2.9 2,0.4 3.5,0.4 5.4,0 0.9,-0.2 1.2,-1.1 1,-1.8 -0.5,-3.5 -0.1,-7.9 -4.3,-8.8 -2.5,-0.6 -5.6,0.1 -8.2,0.2 -3.3,0.2 -6.5,0.3 -9.8,0.5 -14,0.6 -28.1,1 -42.2,1 -27.8,0 -55.5,-1.3 -83.1,-4.6 -1.7,-0.2 -1.7,2.8 0.2,3 z m 21.7,72.7 c 8,10.5 17.4,19.6 28,27.4 1.6,1.1 3.1,-1.5 1.5,-2.6 -10.2,-7.5 -19.3,-16.3 -27,-26.4 -1.1,-1.5 -3.7,0 -2.5,1.6 z m -6.7,-30.5 c 15.6,22.5 34.8,42.2 57,58.3 1.6,1.1 3.1,-1.5 1.5,-2.6 -21.7,-15.8 -40.6,-35.2 -55.9,-57.2 -1.1,-1.6 -3.7,-0.1 -2.6,1.5 z m -6.1,-26.8 c 27,32 57,61.9 92.8,84.1 1.6,1 3.2,-1.6 1.5,-2.6 -35.6,-22 -65.4,-51.7 -92.2,-83.6 -1.2,-1.5 -3.3,0.7 -2.1,2.1 z m 28.7,-1.7 c 25.7,29.9 54.2,58.3 86,81.7 1.6,1.1 3.1,-1.5 1.5,-2.6 -31.6,-23.2 -59.9,-51.6 -85.4,-81.2 -1.3,-1.5 -3.4,0.6 -2.1,2.1 z m 32.8,2.1 c 17.4,21.3 37.4,40.3 59.6,56.6 1.6,1.1 3.1,-1.5 1.5,-2.6 -22,-16.1 -41.8,-35 -59,-56.1 -1.2,-1.5 -3.3,0.6 -2.1,2.1 z m 26.8,-1.1 c 11.2,12.6 24,23.4 38.2,32.5 1.6,1 3.1,-1.6 1.5,-2.6 -14,-8.9 -26.6,-19.7 -37.6,-32 -1.3,-1.5 -3.4,0.6 -2.1,2.1 z"
         id="path2"
         fill="#e8e8e8" />
      <path
         d="m 132.4,680 c 6.5,13.7 10.9,28.1 13.4,43.1 0.1,0.7 0.8,1.1 1.4,1.1 0.6,0 3.8,-0.1 4,0.9 0.1,0.4 -1.9,2.7 -2.1,3.2 -0.6,1.6 -0.6,3.5 0,5.1 0.8,1.9 2.3,3.2 4.1,3.9 0.6,0.3 1.3,0.4 2,0.5 0.6,0.1 1.2,0.1 1.8,0 0.8,-0.1 0.7,0 -0.2,0.4 -1,1.5 -2.4,1.7 -2.8,3.9 -0.3,2.1 0.7,4.1 1.5,5.9 3.3,7 5.2,14.4 7.9,21.7 9.3,24.8 27.1,45.3 47.2,62.2 1.5,1.2 3.6,-0.9 2.1,-2.1 -20.7,-17.4 -39.1,-38.7 -47.8,-64.8 -1.1,-3.4 -2.1,-6.8 -3.3,-10.1 -1,-2.9 -2.9,-5.9 -3.8,-8.8 -1,-1.6 -0.9,-3.4 0.4,-5.2 l 1.2,-0.9 c 0.3,-0.5 0.9,-0.8 1.2,-1.4 0.4,-1.1 0.1,-2.1 -0.7,-2.9 -1.3,-1.3 -3.3,-0.6 -5,-1.1 -6.5,-1.9 -1.2,-6.3 -0.7,-9.5 0.7,-4.2 -4.5,-3.7 -7.3,-3.9 0.5,0.4 1,0.7 1.4,1.1 -2.5,-15.2 -7.1,-29.9 -13.7,-43.8 -0.4,-1.8 -3,-0.3 -2.2,1.5 z"
         id="path3"
         fill="#e8e8e8" />
      <path
         d="m 133.5,679.3 c 32.5,8.7 61,30.8 81.7,57 22,27.8 35.7,61.2 43.1,95.7 0.4,1.9 3.3,1.1 2.9,-0.8 -7.5,-35 -21.5,-68.8 -43.8,-97 -21,-26.5 -50,-48.9 -83,-57.7 -2,-0.6 -2.8,2.3 -0.9,2.8 z"
         id="path4"
         fill="#e8e8e8" />
      <path
         d="m 145.3,691.7 c 39.8,38.7 70.5,86.2 89.4,138.5 0.7,1.8 3.6,1 2.9,-0.8 -19.1,-52.7 -50,-100.7 -90.2,-139.8 -1.3,-1.4 -3.5,0.7 -2.1,2.1 z"
         id="path5"
         fill="#e8e8e8" />
      <path
         d="m 163,754.6 c 8.4,0.9 16.6,2.8 24.4,5.9 7.6,3 15.9,6.8 20.7,13.7 1.1,1.6 3.7,0.1 2.6,-1.5 -4.8,-6.9 -12.3,-10.8 -19.9,-14 -8.9,-3.8 -18.2,-6.1 -27.9,-7.1 -1.8,-0.2 -1.8,2.8 0.1,3 z m 14.9,-54.8 c -0.1,11.5 1.8,22.8 5.5,33.7 0.6,1.8 3.5,1 2.9,-0.8 -3.6,-10.6 -5.4,-21.6 -5.4,-32.9 0,-1.9 -3,-1.9 -3,0 z m 54.9,54.4 c 4.9,-18.3 21.2,-29.2 35.1,-40.4 14.8,-11.9 29.1,-24.6 42.7,-37.8 -0.8,-0.5 -1.7,-1 -2.5,-1.5 -4.5,12.1 -5.4,24.8 -5.2,37.6 0.2,12.8 3.1,27.5 -1,39.9 0.5,-0.4 1,-0.7 1.4,-1.1 -3.2,0.2 -6.4,0.5 -9.6,0.7 -1,0.1 -2,1.3 -1.3,2.3 2.3,3.1 5,4.1 4.9,8.7 0,3.2 -0.8,6.9 -1.9,9.9 -1.1,3.1 -4,5.2 -5,8.1 -0.8,2.6 1.2,4.8 1.2,7.4 0.1,4.3 -3,7.9 -5.2,11.3 -2.1,3.2 -4,6.5 -5.7,9.9 -3.4,6.7 -6.1,13.6 -8.1,20.8 -0.5,1.9 2.4,2.7 2.9,0.8 2.5,-8.9 6.1,-17.5 10.8,-25.5 3.2,-5.4 9.2,-11.7 8.5,-18.5 -0.3,-2.7 -1.7,-3.5 -0.5,-6.6 0.1,-0.1 1.9,-2.5 2,-2.7 1.9,-3.1 2.8,-6.6 3.4,-10.1 0.4,-2.6 1.2,-5.8 0.8,-8.4 -0.6,-3.7 -3.4,-4 -5.5,-6.8 -0.4,0.8 -0.9,1.5 -1.3,2.3 3.2,-0.2 6.4,-0.5 9.6,-0.7 0.7,-0.1 1.2,-0.4 1.4,-1.1 3.8,-11.6 1.5,-25.1 1.1,-37.1 -0.4,-13.7 0.1,-27.5 5,-40.5 0.6,-1.5 -1.5,-2.4 -2.5,-1.5 -14.5,14.1 -29.7,27.6 -45.6,40.2 -13.6,10.8 -28.3,21.8 -33,39.4 -0.3,2.1 2.6,2.9 3.1,1 z"
         id="path6"
         fill="#e8e8e8" />
      <path
         d="m 299.5,689 c -9.8,17.1 -19.8,34 -29.2,51.3 -8.8,16 -16.6,32.6 -20.3,50.5 -0.4,1.9 2.5,2.7 2.9,0.8 3.8,-18.3 11.9,-35.1 20.9,-51.4 9.2,-16.7 18.9,-33.1 28.3,-49.7 0.9,-1.6 -1.7,-3.2 -2.6,-1.5 z"
         id="path7"
         fill="#e8e8e8" />
      <path
         d="m 270,716.8 c 1.3,5.7 1.9,11.4 1.7,17.2 -0.1,1.9 2.9,1.9 3,0 0.2,-6.1 -0.4,-12 -1.8,-18 -0.5,-1.9 -3.3,-1.1 -2.9,0.8 z m 16.3,-19.1 c 1.1,4.3 1.3,8.5 0.8,12.8 -0.2,1.9 2.8,1.9 3,0 0.6,-4.6 0.3,-9.1 -0.9,-13.6 -0.5,-1.8 -3.4,-1 -2.9,0.8 z m 0.7,19.9 c 5.9,-3.5 12,-6.6 18.3,-9.2 1.8,-0.7 1,-3.6 -0.8,-2.9 -6.6,2.7 -12.9,5.9 -19.1,9.5 -1.6,1 -0.1,3.6 1.6,2.6 z m -25.8,50.2 c 3.8,-3.2 7.6,-6.3 11.5,-9.3 4.1,-3.2 8.6,-7.5 13.6,-9.5 1.8,-0.7 1,-3.6 -0.8,-2.9 -4.5,1.7 -8.2,5 -12,8 -4.9,3.8 -9.7,7.6 -14.4,11.6 -1.5,1.2 0.6,3.3 2.1,2.1 z M 145.4,711.7 c 7,0.7 14,1.4 21,2 1.9,0.2 1.9,-2.8 0,-3 -7,-0.7 -14,-1.4 -21,-2 -1.9,-0.2 -1.9,2.8 0,3 z m 183.5,199.5 h 481.7 c 1.9,0 1.9,-3 0,-3 H 328.9 c -2,0 -2,3 0,3 z m 423.8,-245 V 710 c 0,1.9 3,1.9 3,0 v -43.8 c 0,-1.9 -3,-1.9 -3,0 z m -69,50.5 h 145.5 c 1.9,0 1.9,-3 0,-3 H 683.7 c -1.9,0 -2,3 0,3 z"
         id="path8"
         fill="#e8e8e8" />
      <path
         d="m 716.3,717.5 v 37.9 c 0,1.9 3,1.9 3,0 v -37.9 c 0,-2 -3,-2 -3,0 z m 75,-0.8 v 33.4 c 0,1.9 3,1.9 3,0 v -33.4 c 0,-1.9 -3,-1.9 -3,0 z m -47.5,41.6 h 111.3 c 1.9,0 1.9,-3 0,-3 H 743.8 c -1.9,0 -1.9,3 0,3 z m -83.9,181.9 h 245.7 c 1.9,0 1.9,-3 0,-3 H 659.9 c -1.9,0 -1.9,3 0,3 z m 338.7,-25.9 h 309.1 c 1.9,0 1.9,-3 0,-3 H 998.6 c -1.9,0 -1.9,3 0,3 z M 1.7,965.5 H 249 c 1.9,0 1.9,-3 0,-3 H 1.7 c -1.9,0 -1.9,3 0,3 z m 166.2,30 h 201.9 c 1.9,0 1.9,-3 0,-3 H 167.9 c -2,0 -2,3 0,3 z M 1191,140.5 V 56.9 c 0,-1.9 -3,-1.9 -3,0 v 83.6 c 0,1.9 3,1.9 3,0 z"
         id="path9"
         fill="#e8e8e8" />
      <path
         d="m 1190.5,56.3 h 108.3 c 1.9,0 1.9,-3 0,-3 h -108.3 c -1.9,0 -1.9,3 0,3 z"
         id="path10"
         fill="#e8e8e8" />
      <path
         d="m 1297.3,55 c -0.2,28.3 -0.4,56.6 -0.7,84.9 0,1.9 3,1.9 3,0 0.2,-28.3 0.4,-56.6 0.7,-84.9 0,-1.9 -3,-1.9 -3,0 z"
         id="path11"
         fill="#e8e8e8" />
      <path
         d="m 1191,142 h 106.8 c 1.9,0 1.9,-3 0,-3 H 1191 c -1.9,0 -1.9,3 0,3 z m 2.9,-79.3 v 70.4 c 0,1.9 3,1.9 3,0 V 62.7 c 0,-1.9 -3,-1.9 -3,0 z"
         id="path12"
         fill="#e8e8e8" />
      <path
         d="m 1196.1,64.2 h 94.7 c 1.9,0 1.9,-3 0,-3 h -94.7 c -2,0 -2,3 0,3 z"
         id="path13"
         fill="#e8e8e8" />
      <path
         d="m 1289.2,63.4 -0.3,69.1 c 0,1.9 3,1.9 3,0 l 0.3,-69.1 c 0,-1.9 -3,-1.9 -3,0 z"
         id="path14"
         fill="#e8e8e8" />
      <path
         d="m 1196.7,135 h 93.3 c 1.9,0 1.9,-3 0,-3 h -93.3 c -1.9,0 -1.9,3 0,3 z m -0.6,-20.7 c 11.5,-4 23.6,-0.4 34.8,2.9 11.4,3.3 22.6,7.3 33.5,11.9 1.8,0.7 2.6,-2.2 0.8,-2.9 -12.1,-5.1 -24.5,-9.4 -37.1,-12.9 -10.7,-2.9 -22,-5.7 -32.8,-1.9 -1.8,0.6 -1,3.5 0.8,2.9 z"
         id="path15"
         fill="#e8e8e8" />
      <path
         d="m 1234.1,117.7 c 18.9,-1.1 36.6,-8.7 55.3,-10.8 1.9,-0.2 1.9,-3.2 0,-3 -18.7,2.1 -36.4,9.6 -55.3,10.8 -2,0.2 -2,3.2 0,3 z m 35.8,-36.6 c -4.2,-2.4 -0.4,-10.3 4.1,-8.4 2.4,1 2.9,3.9 1.6,6 -1.4,2.3 -4.3,2.7 -6.7,2 -1.9,-0.5 -2.7,2.4 -0.8,2.9 4,1.1 8.5,-0.1 10.5,-4 1.8,-3.5 0.4,-8.1 -3.4,-9.7 -7.8,-3.3 -14.2,9.7 -6.8,13.8 1.6,0.9 3.2,-1.7 1.5,-2.6 z m -30.6,-26.8 c 0.1,-1.7 0.2,-3.4 0.7,-5 0.4,-1.3 1.4,-4.4 2.9,-5 2.7,-1 3.7,8.5 3.9,10.3 0.2,1.9 3.2,1.9 3,0 -0.3,-3.5 -1.1,-14.5 -6.7,-13.7 -2.4,0.3 -4.1,3 -5,5 -1.2,2.6 -1.6,5.5 -1.7,8.3 -0.1,2 2.9,2 2.9,0.1 z m 16.8,466.5 v 36.1 c 0,1.9 3,1.9 3,0 v -36.1 c 0,-1.9 -3,-1.9 -3,0 z"
         id="path16"
         fill="#e8e8e8" />
      <path
         d="m 1219.8,561.3 h 81.7 c 1.9,0 1.9,-3 0,-3 h -81.7 c -1.9,0 -1.9,3 0,3 z"
         id="path17"
         fill="#e8e8e8" />
      <path
         d="m 1231.3,562.2 v 17 c 0,1.9 3,1.9 3,0 v -17 c 0,-1.9 -3,-1.9 -3,0 z m 43.7,0.9 v 20.2 c 0,1.9 3,1.9 3,0 v -20.2 c 0,-2 -3,-2 -3,0 z"
         id="path18"
         fill="#e8e8e8" />
      <path
         d="m 1253.8,587.2 h 56.7 c 1.9,0 1.9,-3 0,-3 h -56.7 c -1.9,0 -1.9,3 0,3 z"
         id="path19"
         fill="#e8e8e8" />
      <path
         d="m 561.9,879.6 c 31.5,-21.3 47.3,-32 51.4,-33.3 10,-3.2 42.4,-13.5 70.7,3.8 20.3,12.4 39,39.3 31.2,57.3 -5.6,12.8 -22.7,16.8 -38.2,20.5 -22.9,5.4 -42.5,2.4 -53.5,-0.2 -4.3,4.2 -11.2,9.8 -20.9,13.5 -16.1,6.2 -34.7,5.1 -35.6,1.4 -0.4,-1.9 3.6,-5.6 23,-13.2 -2.3,-2.5 -5.7,-5.5 -10.5,-7.6 -14.2,-6.5 -28.4,-0.2 -31.1,1.1 13.9,8.1 16.9,12.3 16.2,14.6 -1.8,5.8 -30.1,7.7 -37.7,-5.6 -0.8,-1.3 -3,-5.8 -1.2,-14.3 3.6,-15.6 16.6,-24.7 36.2,-38 z"
         id="path20"
         fill="#161616" />
      <path
         d="m 699.1,901.8 c 3.2,-6.6 17.6,-5 23.2,-4.4 7.2,0.8 13.6,1.5 19.4,6.6 4.4,3.8 10.8,12.1 8.5,18.8 -2.1,6.4 -10,5.9 -25.3,13.4 -2.6,1.3 -27.6,13.6 -25.9,21.7 0.7,3.3 5.2,3.2 19.5,9.3 12.4,5.2 19.7,8.4 25.8,15.4 3,3.5 9,10.4 7.4,17.4 -3,12.9 -29.8,15.1 -30.5,13.1 -0.6,-1.7 18.2,-6.4 18.4,-15.2 0.2,-6.7 -10.3,-12.1 -16.9,-15.6 -19.4,-10.1 -32.5,-6.5 -37.6,-16.2 -2.9,-5.5 -1.3,-11.4 -1,-12.5 1.5,-5.4 5.7,-10 26.2,-20.3 18.7,-9.4 27,-11.6 26.9,-15.8 -0.1,-3.9 -7.3,-7.1 -11.7,-8.2 -12.4,-3.3 -21.5,4.5 -25.7,0.1 -1.8,-2 -1.7,-5.4 -0.7,-7.6 z m -170.8,-48.4 18.9,14.1 c 9,-0.9 17.9,-1.7 26.9,-2.6 5.6,-5.4 11.2,-10.9 16.8,-16.3 0.4,3.4 1.2,11.1 1.5,14.8 3.5,33.3 3.8,36.2 1.7,40 -6.9,12.3 -30.2,17.3 -43.6,8.7 -6.5,-4.2 -9,-10.5 -13.7,-22.6 -5.7,-14.6 -7.7,-27.4 -8.5,-36.1 z"
         id="path21"
         fill="#161616" />
      <path
         d="m 553.7,888 c -1.5,3.1 -4.8,5 -8.2,4.4 -0.9,-0.2 -1.3,1.3 -0.4,1.4 4.1,0.7 8.2,-1.3 9.9,-5.1 0.4,-0.8 -0.8,-1.6 -1.3,-0.7 z m 13.9,-1 c 3.3,3.2 7.7,4.6 12.2,3.9 1,-0.1 0.5,-1.6 -0.4,-1.4 -4,0.6 -7.9,-0.7 -10.8,-3.5 -0.7,-0.7 -1.7,0.3 -1,1 z m -5.3,9.5 c -0.3,0 -0.5,-0.1 -0.8,-0.1 0.1,-0.1 0.1,-0.3 0.2,-0.4 0.2,0.2 0.5,0.4 0.7,0.6 0,-0.2 -0.1,-0.3 -0.1,-0.5 -0.3,-0.9 -1.7,-0.5 -1.4,0.4 0.5,2.2 1.3,5.6 -1.4,6.7 -0.9,0.4 -0.5,1.8 0.4,1.4 3.6,-1.5 3.2,-5.4 2.5,-8.6 -0.5,0.1 -1,0.3 -1.4,0.4 0,0.2 0.1,0.3 0.1,0.5 0.1,0.3 0.4,0.6 0.7,0.6 2.6,-0.2 0.5,-3.8 -0.7,-1.7 -0.5,0.7 0.7,1.5 1.2,0.7 z"
         id="path22"
         fill="#ffffff" />
      <path
         d="m 561.3,897.2 c 0.5,1.7 0.6,3.6 1.7,5.1 0.9,1.2 2.3,1.8 3.8,1.5 0.9,-0.2 0.5,-1.6 -0.4,-1.4 -2.8,0.6 -3.2,-3.8 -3.7,-5.6 -0.2,-0.9 -1.6,-0.5 -1.4,0.4 z m -4.8,1.4 c -2.9,-1.3 -5.9,-1.9 -9.1,-1.7 -1,0.1 -1,1.6 0,1.5 2.9,-0.2 5.7,0.3 8.3,1.5 0.9,0.4 1.7,-0.9 0.8,-1.3 z m -2.6,2 c -2.5,0.2 -4.7,1.2 -6.4,2.9 -0.7,0.7 0.4,1.7 1.1,1.1 1.5,-1.4 3.3,-2.3 5.4,-2.5 0.8,-0.1 0.8,-1.6 -0.1,-1.5 z m 14.3,-2.7 c 2.9,-1.1 5.8,-1.5 8.9,-1.2 1,0.1 1,-1.4 0,-1.5 -3.2,-0.3 -6.3,0.2 -9.3,1.3 -0.9,0.3 -0.6,1.8 0.4,1.4 z m 2,2.7 c 2.2,-0.3 4.3,-0.1 6.4,0.7 0.9,0.3 1.3,-1.1 0.4,-1.4 -2.2,-0.8 -4.5,-1 -6.8,-0.7 -1,0 -1,1.6 0,1.4 z m -23.6,-17 c 1.5,-0.9 3.3,-0.9 4.8,0 0.8,0.5 1.6,-0.8 0.8,-1.3 -2,-1.1 -4.3,-1.1 -6.3,0 -0.9,0.5 -0.1,1.8 0.7,1.3 z m 21,-2 c 1.5,-0.8 3.2,-1 5,-0.8 0.9,0.1 1.4,-1.3 0.4,-1.4 -2.1,-0.3 -4.2,0 -6.1,1 -1,0.3 -0.2,1.6 0.7,1.2 z"
         id="path23"
         fill="#ffffff" />
      <path
         d="m 543.7,850.2 c 3.1,-1.3 6.2,-2.6 9.2,-4 -0.6,-0.4 -1.1,-0.8 -1.7,-1.3 -1.2,3.8 -3,7.2 -5.4,10.4 -0.6,0.8 0.4,2 1.3,1.7 3.4,-1.3 6.8,-2.5 10.2,-3.8 1.3,-0.5 0.8,-2.7 -0.6,-2.2 -3.4,1.3 -6.8,2.5 -10.2,3.8 0.4,0.6 0.8,1.1 1.3,1.7 2.6,-3.3 4.4,-6.9 5.7,-10.9 0.3,-1 -0.8,-1.6 -1.7,-1.3 -3.1,1.3 -6.2,2.6 -9.2,4 -1.4,0.6 -0.2,2.5 1.1,1.9 z m 5,-18.2 c 2.1,-1.2 4.2,-2 6.5,-2.5 -0.4,-0.6 -0.8,-1.1 -1.3,-1.7 -0.9,2 -2,4 -3.3,5.8 -0.5,0.8 0.2,1.6 1,1.7 2.7,0.2 5.2,-0.5 7.3,-2.1 1.1,-0.9 0,-2.8 -1.1,-1.9 -1.8,1.4 -3.8,2 -6.1,1.8 0.3,0.6 0.6,1.1 1,1.7 1.3,-1.9 2.4,-3.8 3.3,-5.8 0.4,-0.9 -0.3,-1.9 -1.3,-1.7 -2.5,0.5 -4.9,1.4 -7.1,2.7 -1.3,0.8 -0.2,2.7 1.1,2 z m 16.5,24.2 c -3.3,-3.3 2.4,-5.2 3,-8.1 0.6,-3.4 -3.4,-6.6 1.1,-9.2 1.3,-0.7 0.1,-2.7 -1.1,-1.9 -1.6,0.9 -2.9,2.3 -3.3,4.2 -0.6,3.2 2.2,5.1 -0.2,8 -1.1,1.4 -2.4,1.8 -2.8,3.7 -0.4,1.9 0.4,3.5 1.7,4.9 1.1,1 2.7,-0.6 1.6,-1.6 z"
         id="path24"
         fill="#161616" />
      <path
         d="M 841.3,570.7 C 590.6,588.8 339.9,606.8 89.3,624.9 82.5,443.1 75.7,261.3 69,79.5 L 824.4,69.3 c 5.6,167.1 11.2,334.2 16.9,501.4 z"
         id="path25"
         stroke="#161616"
         stroke-width="3.5"
         fill="#ffffff" />
      <path
         d="m 282,168 h 145.9 c 1.9,0 1.9,-3 0,-3 H 282 c -1.9,0 -1.9,3 0,3 z m 54.6,12.3 h 150.3 c 1.9,0 1.9,-3 0,-3 H 336.6 c -2,0 -2,3 0,3 z M 99.4,473.7 c 1.8,41.8 3.6,83.7 5.4,125.5 0.1,1.9 3.1,1.9 3,0 -1.8,-41.8 -3.6,-83.7 -5.4,-125.5 -0.1,-1.9 -3.1,-1.9 -3,0 z m 220.3,-24.4 h 13 c 1.9,0 1.9,-3 0,-3 h -13 c -1.9,0 -1.9,3 0,3 z m 24.3,0 h 33.2 c 1.9,0 1.9,-3 0,-3 H 344 c -1.9,0 -1.9,3 0,3 z m 58.3,-1.6 H 442 c 1.9,0 1.9,-3 0,-3 h -39.7 c -1.9,0 -1.9,3 0,3 z m -64.7,22.6 h 48.6 c 1.9,0 1.9,-3 0,-3 h -48.6 c -2,0 -2,3 0,3 z M 361,459 h 56.7 c 1.9,0 1.9,-3 0,-3 H 361 c -1.9,0 -1.9,3 0,3 z m 100.4,106.9 h 95.5 c 1.9,0 1.9,-3 0,-3 h -95.5 c -1.9,0 -1.9,3 0,3 z m 78.5,8.1 h 50.2 c 1.9,0 1.9,-3 0,-3 h -50.2 c -1.9,0 -1.9,3 0,3 z m 43.7,-12.2 H 633 c 1.9,0 1.9,-3 0,-3 h -49.4 c -1.9,0 -1.9,3 0,3 z m 84.2,-271.1 h 91.5 c 1.9,0 1.9,-3 0,-3 h -91.5 c -1.9,0 -1.9,3 0,3 z m -28.3,4.8 h 29.1 c 1.9,0 1.9,-3 0,-3 h -29.1 c -2,0 -2,3 0,3 z m 5.6,8.1 H 743 c 1.9,0 1.9,-3 0,-3 h -97.9 c -1.9,0 -1.9,3 0,3 z m 120.7,-7.3 h 18.6 c 1.9,0 1.9,-3 0,-3 h -18.6 c -2,0 -2,3 0,3 z M 741.5,418.5 H 769 c 1.9,0 1.9,-3 0,-3 h -27.5 c -2,0 -2,3 0,3 z m -17.8,8.1 h 29.9 c 1.9,0 1.9,-3 0,-3 h -29.9 c -2,0 -2,3 0,3 z m 14.5,8.1 h 59.1 c 1.9,0 1.9,-3 0,-3 h -59.1 c -1.9,0 -1.9,3 0,3 z m 37.3,-9.7 h 17.8 c 1.9,0 1.9,-3 0,-3 h -17.8 c -2,0 -2,3 0,3 z M 363.6,300.3 h 41.9 c 1.9,0 1.9,-3 0,-3 h -41.9 c -1.9,0 -1.9,3 0,3 z m 30.5,8.6 H 456 c 1.9,0 1.9,-3 0,-3 h -61.9 c -1.9,0 -2,3 0,3 z m 54.3,-11.5 h 35.2 c 1.9,0 1.9,-3 0,-3 h -35.2 c -1.9,0 -1.9,3 0,3 z M 90.5,137.8 97.1,365.6 c 0.6,21.6 1.2,43.1 1.9,64.7 0.1,1.9 3.1,1.9 3,0 L 95.4,202.5 c -0.6,-21.6 -1.2,-43.1 -1.9,-64.7 0,-1.9 -3,-1.9 -3,0 z m 726.9,248.1 4.5,150.5 c 0.1,1.9 3.1,1.9 3,0 l -4.5,-150.5 c 0,-1.9 -3,-1.9 -3,0 z"
         id="path26"
         fill="#161616" />
      <path
         d="m 610.3,362.9 c 0.6,6.1 1.2,12.3 1.7,18.4 5.8,-1.5 11.5,-3.1 17.3,-4.6 -0.8,-6.1 -1.5,-12.3 -2.3,-18.4 -5.6,1.5 -11.1,3.1 -16.7,4.6 z m -3.5,46.7 c 6,-0.8 11.9,-1.5 17.9,-2.3 0.8,7.3 1.5,14.6 2.3,21.9 -5.4,0.2 -10.8,0.4 -16.1,0.6 -1.4,-6.8 -2.7,-13.5 -4.1,-20.2 z m 21.9,44.3 c 1.9,6.3 3.8,12.7 5.8,19 5.4,-2.5 10.8,-5 16.1,-7.5 -1.7,-5.6 -3.5,-11.1 -5.2,-16.7 -5.5,1.8 -11.1,3.5 -16.7,5.2 z"
         id="path27"
         fill="#e5261f" />
      <path
         d="m 233.4,513.5 c 1.3,19.4 2.6,38.8 3.9,58.1 34,-2.2 68,-4.3 102,-6.5 0.6,-17.4 1.3,-34.9 1.9,-52.3 -35.9,0.3 -71.9,0.5 -107.8,0.7 z"
         id="path28"
         fill="#e5261f" />
      <ellipse
         id="Oval"
         fill="#e5261f"
         cx="656.09998"
         cy="112.9"
         rx="7.0999999"
         ry="5.9000001" />
      <ellipse
         id="ellipse28"
         fill="#ec615b"
         cx="173.60001"
         cy="159.10001"
         rx="5.9000001"
         ry="3.9000001" />
      <ellipse
         id="ellipse29"
         fill="#ec615b"
         cx="267.5"
         cy="270.70001"
         rx="4.5999999"
         ry="5.4000001" />
      <path
         d="m 225.3,141.4 c 1.8,-0.3 5.3,16.4 13.9,46.7 11.3,39.9 22.5,72.1 30.6,94.1 -12.3,7.6 -39.8,22.1 -77.3,22.6 -26.5,0.3 -47.4,-6.5 -59.8,-11.7 24.3,2.7 43.9,2 57.6,0.7 21.7,-2 17.9,-4.3 34.3,-5.1 6.8,-0.3 15.7,-0.3 24.8,-5.8 3.3,-2 5.7,-4.2 7.3,-5.8 -6.4,-13.2 -14.6,-32.6 -21.2,-56.9 -10.5,-39.5 -12.8,-78.3 -10.2,-78.8 z"
         id="path29"
         fill="#6d6c6c"
         opacity="0.21" />
      <path
         d="m 319,249.9 c 1.6,12.7 4.5,26.9 9.3,42.1 13.7,43.2 36.8,74 54.2,93 -10.4,7.7 -23.3,15.7 -38.8,22.4 -47,20.3 -90.9,17.3 -114.4,13.7 l -2.7,-15.9 c 10,0.3 20.6,0.1 31.7,-0.5 39.6,-2.5 73.6,-11.4 100.7,-21.3 -8.6,-14.6 -14.8,-27.2 -19.1,-36.7 -10.4,-22.7 -18.1,-39.8 -20.8,-62.9 -1.7,-14.1 -1,-26 -0.1,-33.9 z"
         id="path30"
         fill="#6d6c6c"
         opacity="0.25" />
      <path
         d="m 636.9,316.1 c 1,22.8 3.4,41.7 5.5,55.3 4.9,31.2 8.5,52.8 21.3,77.1 8,15.1 17,26.2 23.5,33.4 -11.3,9.7 -26.5,20.7 -46,29.5 -49,22.3 -95,17.8 -116.5,14.2 -1.1,-4.9 -2.2,-9.8 -3.3,-14.8 2.7,0.2 6.9,0.4 12,0.5 17,0.4 52.4,1 93,-12.6 11.4,-3.8 27.4,-10.2 45.4,-20.8 -7.1,-9.5 -14.1,-20.8 -20.2,-33.9 -24.1,-51.7 -19.3,-101.9 -14.7,-127.9 z"
         id="path31"
         fill="#6d6c6c"
         opacity="0.14" />
      <path
         d="m 713.5,91.8 c 2,9.3 4.9,23.5 7.8,41.2 5.4,34.2 5,46.6 11.3,66.8 3.3,10.5 9.2,25.4 20.3,42.4 -9.3,7.6 -20.9,15.5 -35.2,22.1 -46.8,21.7 -91.6,15.6 -112.2,11.3 0.2,-4 0.4,-8 0.6,-11.9 2.6,0.7 6.5,1.6 11.3,2.4 6.3,1 29.6,4.4 73.4,-6.6 12.1,-3 28.4,-7.8 47.1,-15.5 -3.6,-6.4 -8.9,-16.4 -13.7,-29.2 -14,-37.1 -13.9,-69.3 -13.7,-85.9 0.1,-9.1 0.7,-21.8 3,-37.1 z"
         id="path32"
         fill="#6d6c6c"
         opacity="0.18" />
      <g
         id="Group"
         transform="translate(111,89)"
         fill="#161616">
        <path
           d="m 4.7,46.7 c -9.9,52.4 0.1,105.4 10.1,157 0.4,1.9 3.3,1.1 2.9,-0.8 C 7.8,151.9 -2.1,99.4 7.6,47.5 7.9,45.7 5,44.8 4.7,46.7 Z"
           id="path33" />
        <path
           d="m 7.5,46.3 c 14.3,9.6 31.6,11.3 48.5,10.1 19.3,-1.4 38.4,-5.5 57.5,-8.7 1.9,-0.3 1.1,-3.2 -0.8,-2.9 -18.3,3 -36.6,6.9 -55.1,8.4 C 40.7,54.6 23.4,53.3 9,43.6 7.4,42.6 5.9,45.2 7.5,46.3 Z m 104,3.5 c 2.8,47.8 10,96.6 34.2,138.6 1,1.7 3.6,0.2 2.6,-1.5 -23.9,-41.6 -31,-89.9 -33.8,-137.1 -0.1,-1.9 -3.1,-1.9 -3,0 z"
           id="path34" />
        <path
           d="m 17.3,204.5 c 22.7,6.6 47.1,2.6 70.2,0.7 20.5,-1.7 42.5,-2.5 60.1,-14.5 1.6,-1.1 0.1,-3.7 -1.5,-2.6 -17.7,12.1 -39.9,12.5 -60.5,14.2 -22.2,1.8 -45.6,5.5 -67.5,-0.8 -1.9,-0.4 -2.7,2.5 -0.8,3 z M 55.7,70.7 c -2,-0.9 0.2,-2.8 1.4,-3.1 1.5,-0.4 4.4,-0.6 5.1,1.1 0.5,1.3 -0.3,3 -1.5,3.5 -1.9,0.9 -4,-0.2 -5.3,-1.5 -1.4,-1.4 -3.5,0.7 -2.1,2.1 2.5,2.5 6.6,3.8 9.7,1.5 2.5,-1.8 3.4,-5.8 1.3,-8.2 -2.4,-2.7 -7.5,-2.4 -10.2,-0.4 -2.4,1.8 -2.9,6.1 0.2,7.5 1.7,0.9 3.2,-1.7 1.4,-2.5 z"
           id="path35" />
        <path
           d="m 95.8,204.9 c -7.2,36.5 0.5,73.4 8.3,109.2 0.4,1.9 3.3,1.1 2.9,-0.8 -7.7,-35.2 -15.3,-71.6 -8.3,-107.6 0.4,-1.9 -2.5,-2.7 -2.9,-0.8 z m 41.3,-38.3 c 23.1,-4.4 46.5,-6 69.9,-5.1 l -1.5,-1.5 c -4.7,48.2 15.9,94.1 40.9,134 1,1.6 3.6,0.1 2.6,-1.5 C 224.3,253 203.8,207.7 208.5,160 c 0.1,-0.8 -0.8,-1.5 -1.5,-1.5 -23.7,-0.9 -47.4,0.8 -70.7,5.2 -1.9,0.4 -1.1,3.3 0.8,2.9 z"
           id="path36" />
        <path
           d="m 105.7,316.2 c 48.6,5.7 97.9,-1.6 142.9,-20.8 1.8,-0.8 0.2,-3.3 -1.5,-2.6 -44.4,19 -93.4,26 -141.4,20.4 -1.9,-0.2 -1.9,2.8 0,3 z m 50.2,-137.3 c 0,-0.1 0.3,-0.6 0.3,-0.8 0.1,-0.4 0.4,-0.8 0.7,-1.1 0.6,-0.5 1.3,-0.9 2.1,-1 1.5,-0.2 2.9,0.6 3.3,2.1 0.3,1.2 -0.2,2.8 -1.6,3 -1.3,0.2 -2.5,-0.7 -2.7,-2 -0.3,-1.9 -3.2,-1.1 -2.9,0.8 0.5,3.5 5,5.2 7.9,3.5 3.2,-1.9 3,-6.8 0.3,-9.1 -3,-2.5 -8,-1.2 -9.7,2.2 -0.8,1.7 -0.8,4 1.1,5 1.5,0.8 3.7,0.1 4.1,-1.8 0.3,-1.9 -2.6,-2.7 -2.9,-0.8 z M 14.6,101.1 c 26.6,3.7 53,-1.8 78.5,-9.1 1.9,-0.5 1.1,-3.4 -0.8,-2.9 -25,7.1 -50.9,12.7 -76.9,9.1 -1.9,-0.3 -2.7,2.6 -0.8,2.9 z m 5,19.6 c 13.8,1.5 27.6,0.1 40.9,-4.1 1.8,-0.6 1.1,-3.5 -0.8,-2.9 -13,4.1 -26.5,5.4 -40.1,4 -1.9,-0.2 -1.9,2.8 0,3 z m 0,24.2 c 26.4,3.1 53,1.2 78.6,-5.5 1.9,-0.5 1.1,-3.4 -0.8,-2.9 -25.4,6.7 -51.7,8.5 -77.8,5.4 -1.9,-0.3 -1.9,2.7 0,3 z m 98.8,153.5 c 26.5,1.2 53,-2 78.4,-9.6 1.8,-0.5 1.1,-3.4 -0.8,-2.9 -25.2,7.5 -51.3,10.7 -77.6,9.5 -2,-0.1 -2,2.9 0,3 z m 5.1,-22.9 c 11.8,-0.4 23.6,-1.3 35.4,-2.6 1.9,-0.2 1.9,-3.2 0,-3 -11.8,1.3 -23.5,2.2 -35.4,2.6 -1.9,0.1 -1.9,3.1 0,3 z m 9.6,-41.2 c 7.8,1 15.9,-1 23.6,-2.1 8.5,-1.3 16.9,-2.5 25.4,-3.8 1.9,-0.3 1.1,-3.2 -0.8,-2.9 -7.8,1.2 -15.7,2.4 -23.5,3.5 -8.1,1.2 -16.5,3.4 -24.7,2.3 -1.9,-0.3 -1.9,2.7 0,3 z M 486.5,10.1 c -10.9,53.5 -12,108.5 -3.3,162.4 0.3,1.9 3.2,1.1 2.9,-0.8 -8.6,-53.3 -7.4,-107.9 3.3,-160.8 0.4,-1.9 -2.5,-2.7 -2.9,-0.8 z"
           id="path37" />
        <path
           d="m 489.9,10.8 c 36.3,-8.3 73.8,-10 110.8,-5 1.9,0.3 2.7,-2.6 0.8,-2.9 -37.5,-5.1 -75.5,-3.4 -112.4,5 -1.8,0.5 -1,3.4 0.8,2.9 z"
           id="path38" />
        <path
           d="m 599.8,3.1 c -1.1,51.5 -0.4,105.9 25.7,152 1,1.7 3.5,0.2 2.6,-1.5 C 602.3,108 601.7,54.1 602.8,3.1 c 0.1,-1.9 -2.9,-1.9 -3,0 z"
           id="path39" />
        <path
           d="m 485.5,174.1 c 11.2,3.4 23.2,3.6 34.8,3.7 12.5,0.1 25,-0.7 37.5,-2.4 23.9,-3.2 47.2,-9.7 69.5,-19.1 1.8,-0.7 0.2,-3.3 -1.5,-2.6 -22.3,9.4 -45.8,15.8 -69.8,18.9 -11.2,1.4 -22.5,2.2 -33.8,2.1 -11.9,0 -24.4,-0.1 -35.8,-3.6 -2,-0.4 -2.7,2.5 -0.9,3 z M 546.7,14 c -3.4,1.2 -4.9,5.1 -3.7,8.4 1.4,3.7 5.7,4.6 8.9,2.4 3.1,-2.2 4.1,-6.6 1.1,-9.4 -2.6,-2.4 -7.1,-2.5 -9.5,0.1 -1.3,1.4 0.8,3.5 2.1,2.1 3,-3.2 8.9,1.3 4.8,4.5 -1.6,1.2 -3.9,1.2 -4.6,-0.9 -0.5,-1.6 0,-3.8 1.7,-4.4 1.8,-0.6 1,-3.5 -0.8,-2.8 z M 488,56.6 c 27.3,0.7 54.5,0.2 81.7,-1.6 1.9,-0.1 1.9,-3.1 0,-3 -27.2,1.8 -54.5,2.4 -81.7,1.6 -2,0 -2,3 0,3 z m 2.7,15.2 c 10.2,0.4 20.4,0.8 30.5,1.2 1.9,0.1 1.9,-2.9 0,-3 -10.2,-0.4 -20.4,-0.8 -30.5,-1.2 -2,-0.1 -2,2.9 0,3 z M 487.9,93 c 25.7,1.4 51.7,2.6 77,-3 1.9,-0.4 1.1,-3.3 -0.8,-2.9 -25.1,5.5 -50.8,4.3 -76.2,2.9 -1.9,-0.1 -1.9,2.9 0,3 z M 115.1,418.1 c -2.3,20 -3.1,40.1 -2.4,60.2 0.1,1.9 3.1,1.9 3,0 -0.7,-20.1 0.1,-40.2 2.4,-60.2 0.2,-1.9 -2.8,-1.9 -3,0 z"
           id="path40" />
        <path
           d="m 116.1,419.3 c 35.6,0 71.3,-0.5 106.9,-1.6 1.9,-0.1 1.9,-3.1 0,-3 -35.6,1.1 -71.3,1.6 -106.9,1.6 -1.9,0 -1.9,3 0,3 z"
           id="path41" />
        <path
           d="m 222.7,416.3 0.9,52.1 c 0,1.9 3,1.9 3,0 l -0.9,-52.1 c 0,-1.9 -3.1,-1.9 -3,0 z"
           id="path42" />
        <path
           d="m 112.4,476.1 c 0.2,6.5 11.5,3.6 15.2,3.4 10.6,-0.7 21.2,-1.4 31.7,-2.2 21.5,-1.5 43,-2.9 64.5,-4.4 1.9,-0.1 1.9,-3.1 0,-3 -18.3,1.2 -36.5,2.5 -54.8,3.7 l -26.1,1.8 c -2.6,0.2 -27.5,2.6 -27.6,0.7 0.1,-1.9 -2.9,-1.9 -2.9,0 z m 11.8,-43.3 c 24,-1.1 48,-0.2 71.8,2.8 1.9,0.2 1.9,-2.8 0,-3 -23.8,-3 -47.8,-3.9 -71.8,-2.8 -2,0.1 -2,3.1 0,3 z m 0.9,15.2 c 13.4,-1 26.9,-2.1 40.3,-3.1 1.9,-0.1 1.9,-3.1 0,-3 -13.4,1 -26.9,2.1 -40.3,3.1 -1.9,0.1 -1.9,3.1 0,3 z m 4.5,15.3 c 19.3,-2.5 40.3,-7.6 59.7,-4.1 1.9,0.3 2.7,-2.5 0.8,-2.9 -19.8,-3.6 -40.8,1.4 -60.5,4 -1.8,0.3 -1.9,3.3 0,3 z M 389.7,247.9 c -15.9,56.6 -13.9,117.2 5.6,172.7 0.6,1.8 3.5,1 2.9,-0.8 -19.3,-55 -21.3,-115 -5.6,-171.1 0.5,-1.9 -2.4,-2.7 -2.9,-0.8 z"
           id="path43" />
        <path
           d="m 391.7,248.9 c 44.5,-0.2 88.8,-6 131.9,-17.3 1.9,-0.5 1.1,-3.4 -0.8,-2.9 -42.8,11.2 -86.8,17 -131.1,17.2 -2,0 -2,3 0,3 z"
           id="path44" />
        <path
           d="m 522.8,229.8 c -1.8,27.8 -0.6,55.8 4.4,83.3 2.5,13.9 5.5,27.8 11,40.8 5.5,12.9 13.1,24.6 22,35.3 1.2,1.5 3.4,-0.6 2.1,-2.1 -9.1,-10.9 -16.8,-23 -22.2,-36.2 -5.1,-12.6 -7.9,-26.1 -10.2,-39.4 -4.8,-26.9 -5.9,-54.4 -4.2,-81.7 0.2,-1.9 -2.8,-1.9 -2.9,0 z"
           id="path45" />
        <path
           d="m 395.7,422.2 c 56.6,4 115.7,-2.4 165.3,-31.6 1.7,-1 0.2,-3.6 -1.5,-2.6 -49.3,29 -107.8,35.1 -163.8,31.2 -1.9,-0.2 -1.9,2.8 0,3 z m 60.2,-164.3 c -1.7,-2.9 1.7,-6.5 4.6,-4.2 3.1,2.5 -0.2,6.5 -3.5,5.2 -1.8,-0.7 -2.6,2.2 -0.8,2.9 2.7,1.1 6,-0.1 7.6,-2.5 1.8,-2.7 1,-6.1 -1.5,-8 -5.4,-4.3 -12.2,2.4 -9,8.1 1,1.7 3.6,0.2 2.6,-1.5 z m -63.2,34.5 c 29.9,-0.5 59.8,-2.6 89.6,-6.2 1.9,-0.2 1.9,-3.2 0,-3 -29.7,3.7 -59.6,5.7 -89.6,6.2 -1.9,0.1 -1.9,3.1 0,3 z M 493,272.3 c 0.9,4.6 1.8,9.3 2.7,13.9 0.4,1.9 3.3,1.1 2.9,-0.8 -0.9,-4.6 -1.8,-9.3 -2.7,-13.9 -0.3,-1.9 -3.2,-1.1 -2.9,0.8 z"
           id="path46" />
        <path
           d="m 495,271.9 c 5.5,-0.8 11,-1.6 16.6,-2.5 1.9,-0.3 1.1,-3.2 -0.8,-2.9 -5.5,0.8 -11,1.6 -16.6,2.5 -1.9,0.3 -1.1,3.2 0.8,2.9 z"
           id="path47" />
        <path
           d="m 510.7,268.5 c 0.8,4.3 1.5,8.6 2.3,12.8 0.3,1.9 3.2,1.1 2.9,-0.8 -0.8,-4.3 -1.5,-8.6 -2.3,-12.8 -0.3,-1.8 -3.2,-1 -2.9,0.8 z"
           id="path48" />
        <path
           d="m 498.2,288.5 c 5.9,-1.2 11.5,-2.8 17.1,-5 1.8,-0.7 1,-3.6 -0.8,-2.9 -5.6,2.1 -11.3,3.8 -17.1,5 -1.9,0.4 -1.1,3.3 0.8,2.9 z m 0.5,-13.2 c 1.1,2.5 2.6,4.5 4.8,6.2 0.8,0.6 2.3,0.6 2.5,-0.7 0.8,-5.4 2.7,-10.2 5.9,-14.7 1.1,-1.6 -1.5,-3.1 -2.6,-1.5 -3.3,4.6 -5.4,9.8 -6.2,15.4 0.8,-0.2 1.7,-0.4 2.5,-0.7 -1.9,-1.5 -3.3,-3.3 -4.3,-5.6 -0.8,-1.7 -3.4,-0.2 -2.6,1.6 z m 1.1,42.9 c -1.6,7.2 -0.9,14.2 2,20.9 0.8,1.8 3.3,0.2 2.6,-1.5 -2.6,-5.9 -3.1,-12.3 -1.7,-18.6 0.4,-1.9 -2.5,-2.7 -2.9,-0.8 z"
           id="path49" />
        <path
           d="m 501.8,319.2 c 6,-1 12,-1.9 18,-2.9 l -1.8,-1.8 c -1,6.4 -0.3,12.5 2.2,18.5 0.7,1.8 3.6,1 2.9,-0.8 -2.3,-5.4 -3.1,-11.1 -2.2,-16.9 0.2,-1.2 -0.6,-2 -1.8,-1.8 -6,0.9 -12,1.9 -18,2.9 -2,0.2 -1.2,3.1 0.7,2.8 z"
           id="path50" />
        <path
           d="m 503.1,339.2 c 6.6,-0.2 12.9,-1.5 19.1,-3.7 1.8,-0.7 1,-3.6 -0.8,-2.9 -5.9,2.2 -12,3.4 -18.3,3.6 -1.9,0 -1.9,3 0,3 z m 0.9,-13.9 c 0.9,2.6 2.4,4.4 4.8,5.8 1.1,0.6 2.1,-0.2 2.3,-1.3 0.6,-5.3 2,-10.4 4.2,-15.3 0.8,-1.7 -1.8,-3.3 -2.6,-1.5 -2.4,5.4 -3.9,11 -4.6,16.8 0.8,-0.4 1.5,-0.9 2.3,-1.3 -1.7,-1 -2.7,-2.2 -3.4,-4.1 -0.7,-1.7 -3.6,-0.9 -3,0.9 z m 2,39.3 c 0.7,6.7 2.5,13 5.5,19 0.8,1.7 3.4,0.2 2.6,-1.5 -2.7,-5.5 -4.4,-11.4 -5,-17.5 -0.3,-1.9 -3.3,-1.9 -3.1,0 z"
           id="path51" />
        <path
           d="m 507.4,364.3 c 7.7,0.7 14.9,-0.7 21.8,-4.1 -0.7,-0.3 -1.5,-0.6 -2.2,-0.9 1.3,6.1 4,11.4 8.2,16.1 1.3,1.4 3.4,-0.7 2.1,-2.1 -3.8,-4.3 -6.2,-9.1 -7.4,-14.7 -0.2,-1 -1.4,-1.3 -2.2,-0.9 -6.4,3.1 -13.2,4.3 -20.3,3.7 -1.9,-0.2 -1.9,2.8 0,2.9 z"
           id="path52" />
        <path
           d="m 514.2,384.7 c 7.8,-2.9 15.5,-6 23,-9.4 1.8,-0.8 0.2,-3.4 -1.5,-2.6 -7.3,3.3 -14.8,6.3 -22.3,9.1 -1.8,0.7 -1,3.6 0.8,2.9 z m -1.6,-15.1 c 2.4,2.1 7.9,9.3 10.7,4 1.3,-2.4 1,-5.7 1.8,-8.4 1.2,-3.8 3.2,-7.3 5.8,-10.3 1.2,-1.5 -0.9,-3.6 -2.1,-2.1 -2.8,3.3 -5,6.9 -6.3,11.1 -0.6,1.9 -1.1,3.9 -1.4,5.9 -0.4,2.5 -1.1,1.9 -3,0.7 -1.2,-0.8 -2.3,-2 -3.4,-3 -1.4,-1.3 -3.5,0.8 -2.1,2.1 z M 395.4,341.3 c 28,-0.3 55.9,-2.6 83.5,-7 1.9,-0.3 1.1,-3.2 -0.8,-2.9 -27.4,4.3 -55,6.6 -82.7,6.8 -1.9,0.1 -1.9,3.1 0,3.1 z m -3.2,-40.6 c 18.1,0.5 36.1,-0.1 54.1,-1.6 1.9,-0.2 1.9,-3.2 0,-3 -18,1.5 -36.1,2 -54.1,1.6 -1.9,-0.1 -1.9,2.9 0,3 z m 4.3,46.5 c 19,0.9 38,0.2 56.8,-2.2 1.9,-0.2 1.9,-3.2 0,-3 -18.9,2.3 -37.9,3.1 -56.8,2.2 -1.9,-0.1 -1.9,2.9 0,3 z m 63.2,-3.6 c 5.4,0.1 10.7,-0.6 15.9,-2.3 1.8,-0.6 1,-3.5 -0.8,-2.9 -4.9,1.6 -9.9,2.3 -15.1,2.2 -1.9,0 -1.9,3 0,3 z m -53,41.2 c 22.8,-1.4 45.5,-3.5 68.1,-6.6 1.9,-0.3 1.9,-3.3 0,-3 -22.6,3 -45.3,5.2 -68.1,6.6 -2,0.1 -2,3.1 0,3 z m 2.6,7 h 22.5 c 1.9,0 1.9,-3 0,-3 h -22.5 c -1.9,0 -1.9,3 0,3 z m 6.5,6.7 c 11.7,-0.7 23.4,-1.8 35.1,-3.2 9.4,-1.2 19.5,-1.7 27.6,-7.2 1.6,-1.1 0.1,-3.7 -1.5,-2.6 -8.5,5.8 -19.9,6.1 -29.8,7.2 -10.4,1.2 -20.9,2.1 -31.3,2.8 -2,0.1 -2.1,3.1 -0.1,3 z M 530,317.7 c 18.2,-0.9 36.3,-3.3 54.2,-7.1 -0.6,-0.3 -1.2,-0.7 -1.8,-1 8.4,25 20.8,48.3 36.7,69.4 1.1,1.5 3.8,0 2.6,-1.5 -15.7,-20.8 -28,-43.9 -36.4,-68.6 -0.3,-0.8 -1,-1.2 -1.8,-1 -17.6,3.8 -35.4,6.1 -53.4,7 -2.1,-0.1 -2.1,2.9 -0.1,2.8 z"
           id="path53" />
        <path
           d="m 533.1,402.1 c 2.7,3.8 4.9,7.8 6.8,12.1 0.2,0.6 1.1,0.9 1.7,0.7 14.7,-4.9 29.2,-10.3 43.4,-16.4 7.2,-3.1 14.3,-6.3 21.4,-9.7 3.4,-1.6 6.8,-3.3 10.1,-5 2,-1 4.3,-1.6 5,-3.8 0.2,-0.6 -0.1,-1.4 -0.7,-1.7 -0.9,-0.5 -1.4,-0.5 -2.3,0 -0.6,0.3 -0.9,1.1 -0.7,1.7 0,0.1 0.1,0.2 0.1,0.3 0.5,1.9 3.4,1.1 2.9,-0.8 0,-0.1 -0.1,-0.2 -0.1,-0.3 -0.2,0.6 -0.5,1.1 -0.7,1.7 h -0.7 c -0.2,-0.6 -0.5,-1.1 -0.7,-1.7 -0.6,1.8 -6.9,3.7 -8.6,4.6 -2.8,1.4 -5.6,2.7 -8.5,4.1 -6.7,3.2 -13.5,6.2 -20.4,9.1 -13.2,5.6 -26.7,10.6 -40.3,15.1 0.6,0.2 1.1,0.5 1.7,0.7 -1.8,-4.3 -4.1,-8.3 -6.8,-12.1 -1.1,-1.7 -3.7,-0.2 -2.6,1.4 z m 17.4,-76.6 c -0.2,-1.3 2.2,-2.5 3.1,-1.6 1.2,1.2 -0.8,3.4 -2.2,2.9 -1.8,-0.7 -2.6,2.2 -0.8,2.9 4.3,1.6 8.5,-4.6 5.2,-7.9 -1.5,-1.5 -3.8,-1.4 -5.6,-0.5 -1.9,1 -2.9,2.9 -2.5,5 0.2,1.9 3.1,1 2.8,-0.8 z m -443.1,-80 c 11.1,0.2 22.3,-0.3 33.3,-1.8 11.5,-1.6 22.9,-4.9 34.6,-4.4 1.9,0.1 1.9,-2.9 0,-3 -10.7,-0.4 -21.1,2.3 -31.6,3.9 -12,1.9 -24.2,2.6 -36.4,2.3 -1.8,0 -1.8,3 0.1,3 z m 1.6,-33.1 c 17,1.3 34,-0.2 50.5,-4.5 1.9,-0.5 1.1,-3.4 -0.8,-2.9 -16.3,4.2 -32.9,5.7 -49.7,4.4 -1.9,-0.1 -1.9,2.9 0,3 z m 384.8,-84.2 c -1.7,11 -3.1,22.9 3.8,32.5 1.1,1.6 3.7,0.1 2.6,-1.5 -6.4,-8.9 -5,-20 -3.5,-30.2 0.3,-1.9 -2.6,-2.7 -2.9,-0.8 z"
           id="path54" />
        <path
           d="m 494.7,128.1 c 23.8,0.9 47.6,-1.4 70.8,-6.9 -0.6,-0.3 -1.2,-0.7 -1.8,-1 2.1,10.3 6.1,19.9 11.7,28.7 1,1.6 3.6,0.1 2.6,-1.5 -5.5,-8.6 -9.3,-18 -11.4,-28 -0.2,-0.8 -1.1,-1.2 -1.8,-1 -22.9,5.4 -46.4,7.7 -70,6.8 -2,-0.2 -2,2.8 -0.1,2.9 z"
           id="path55" />
        <path
           d="m 500.1,160.6 c 25.8,-0.8 51.3,-4.6 76.1,-11.4 1.9,-0.5 1.1,-3.4 -0.8,-2.9 -24.6,6.8 -49.8,10.6 -75.3,11.3 -2,0.1 -2,3.1 0,3 z m 352.6,698.5 v 33.8 c -80,31.7 -96.3,43 -95.1,47.1 0.3,1 2.4,4 44.4,-0.9 41.6,-4.9 75.3,-12 98.7,-17.8 -4.1,-23.1 -8.3,-46.2 -12.4,-69.3 -11.9,2.4 -23.8,4.8 -35.6,7.1 z"
           id="path56" />
      </g>
      <path
         d="m 999.6,469.8 c -2.3,4.3 -3.1,7.8 -3.3,8.6 -14.3,60.8 -33,96.7 -45.2,167.2 -23.3,135.8 -3.2,290.1 -1.3,304.6 6.4,2.8 18.7,7 34.4,6.4 13.8,-0.6 24.5,-4.7 30.6,-7.6 -2.3,-44.3 0,-99 15.3,-159.3 18.7,-73.9 42.4,-98.4 63.7,-184.8 15.8,-64 34.1,-138.5 2.5,-160.6 -24.2,-17.2 -80.9,-4.6 -96.7,25.5 z"
         id="path57"
         fill="#d6d6d6" />
      <path
         d="m 1054.9,501.7 c -16,73 -30.9,150.8 -43.5,233.1 -11.9,77.4 -20.8,151.5 -27.4,221.9 10.1,-2.1 20.1,-4.2 30.2,-6.3 -1.3,-31.1 0.1,-57.6 2.1,-77.9 2.4,-25.2 8.5,-83.9 33,-142.5 3.2,-7.5 7.3,-16.6 14,-33.7 11.3,-28.3 19.5,-52.5 23.2,-63.9 17.4,-54.4 26.1,-117.5 28.8,-138.3 -20.2,2.4 -40.3,5 -60.4,7.6 z"
         id="path58"
         fill="#6d6c6c"
         opacity="0.2" />
      <path
         d="m 1087.9,628.8 c -39.2,51.1 -57.5,97.4 -66.7,128.5 -8.4,28.3 -12.1,53.3 -16.9,85.7 -6.8,46 -9.4,84.8 -10.5,112.4 6.6,-1.6 13.1,-3.3 19.7,-4.9 -1.1,-38.7 1.6,-71.8 4.9,-97.6 4,-30.6 8.6,-66.1 24.6,-108.8 5.8,-15.5 8.6,-19.9 21.8,-53.4 10.2,-26.2 18,-47.7 23.1,-61.9 z"
         id="path59"
         fill="#6d6c6c"
         opacity="0.19" />
      <path
         d="m 1179.7,936.6 c 5.6,13.9 11.3,27.8 16.9,41.8 -47,29.9 -69.2,47.3 -66.7,52.4 3.1,6.3 43.7,-6.2 121.8,-37.3 -8.3,-27 -16.6,-53.9 -24.9,-80.9 z"
         id="path60"
         fill="#161616" />
      <path
         d="m 1141.1,471 c 24.5,22.4 23.7,53.8 26.8,105.8 0,0 7.6,127.9 33.1,230.7 6.4,25.7 18,65.6 39.5,113.4 -3.6,4.6 -13.4,15.8 -30.6,21.7 -17.6,6 -32.6,2.8 -38.2,1.3 -30.6,-52.2 -52.3,-96.7 -66.3,-127.5 -64.9,-142.2 -70.1,-217.1 -70.1,-256.2 0,-40.2 0.7,-88.4 30.6,-104.5 22.5,-12.1 55.5,-2.7 75.2,15.3 z"
         id="path61"
         fill="#d6d6d6" />
      <path
         d="m 1071.7,486.3 c 11.1,42.7 23.1,86.1 35.9,130.1 33.4,114.2 69.7,222.1 107.8,323.3 3.7,-1.9 8.2,-4.5 12.8,-8 4.7,-3.6 8.4,-7.2 11.2,-10.4 -5.2,-12.1 -12.4,-29.6 -20,-51.1 -11.5,-32.9 -30.2,-93.4 -39.9,-174 -9.3,-77.4 -14,-116.1 -13.6,-140.5 0.3,-20.1 2.1,-61 -23.9,-83 -5.4,-4.5 -10.7,-7.2 -14.4,-8.8 -18.7,7.5 -37.3,15 -55.9,22.4 z"
         id="path62"
         fill="#6d6c6c"
         opacity="0.15" />
      <path
         d="m 1167.1,581.7 c -4.6,46.5 -6.1,108.8 5.1,180.8 11.3,72.4 31.8,131.5 50.3,174.5 5.7,-4.7 11.4,-9.4 17.1,-14.2 -6.8,-16.1 -15.7,-38.5 -24.6,-65.9 -17.1,-52.7 -24.5,-93.8 -30.9,-130.7 -6.5,-37.8 -13.3,-86.7 -17,-144.5 z"
         id="path63"
         fill="#6d6c6c"
         opacity="0.22" />
      <path
         d="m 698.9,105.7 c -4,2 -9.5,5.5 -13.8,11.5 -2.3,3.1 -5.1,7.2 -5.5,13 -0.1,2.3 -0.4,7.3 2.8,10.6 0.9,1 3.3,2.9 15.1,2.5 10.5,-0.4 15.8,-0.6 18.5,-3.4 5.2,-5.4 3.3,-15.6 0,-21.7 -5.2,-9.7 -15.4,-12.1 -17.1,-12.5 z"
         id="path64"
         stroke="#161616"
         stroke-width="2"
         fill="#ffffff" />
      <path
         d="m 759.3,130.8 c 14.1,16.1 36.7,25.7 78.2,42.8 52.3,21.6 78.5,32.4 109.5,36.2 33.5,4.1 51.4,-0.2 57.6,10.7 8.1,14.1 -10.9,40.5 -30.5,62.6 -14.6,-3.2 -29.7,-7.2 -45.3,-12.4 -85.5,-28.3 -147.3,-78.1 -187.9,-119.5 -5.1,1.1 -13.8,2.2 -23.7,-0.8 -8.5,-2.5 -20.5,-8.9 -19.8,-14 0.9,-6.2 22.6,-7.3 23.9,-7.4 -6.6,-2.7 -16.1,-7.3 -26.4,-14.8 -3,-2.2 -20.2,-14.9 -18.1,-18.9 1.8,-3.5 17.4,1.3 32.1,5.8 13.4,4.1 22.7,7 32.9,14 9.8,6.6 15.5,13.4 17.5,15.7 z"
         id="path65"
         stroke="#161616"
         stroke-width="2"
         fill="#ffffff" />
      <path
         d="m 690.1,106.8 c 2.4,2.7 2.9,6.3 5,9.1 1.8,2.5 4.4,4.3 7.1,5.8 8.1,4.5 16.7,8.2 25,12.3 1.4,0.7 3.2,-1.2 1.8,-2.4 -4.3,-3.7 -8.9,-7 -13.7,-10 -1.6,-1 -3.2,1.6 -1.5,2.6 4.6,2.9 9,6 13.1,9.5 l 1.8,-2.4 c -7.9,-3.8 -15.8,-7.5 -23.6,-11.6 -3.7,-1.9 -7,-4.1 -8.9,-7.9 -1.3,-2.6 -2,-5.1 -4,-7.3 -1.3,-1.2 -3.4,0.9 -2.1,2.3 z"
         id="path66"
         fill="#ffffff" />
      <path
         d="m 697.9,117.3 c 4.6,2 9,4.6 13,7.7 1.5,1.2 3.6,-0.9 2.1,-2.1 -4.2,-3.3 -8.7,-6 -13.6,-8.2 -1.8,-0.8 -3.3,1.8 -1.5,2.6 z"
         id="path67"
         fill="#ffffff" />
      <path
         d="m 686.1,105 c 3.8,6.1 8.8,11.1 14.7,15.1 1.6,1.1 3.1,-1.5 1.5,-2.6 -5.5,-3.7 -10.1,-8.4 -13.6,-14.1 -1,-1.5 -3.6,0 -2.6,1.6 z"
         id="path68"
         fill="#ffffff" />
      <path
         d="m 690.6,113.2 c 2,2.7 4.2,5.2 6.7,7.4 1.8,1.6 9.7,7.3 5.6,10.2 -0.8,0.5 0,1.8 0.8,1.3 2.8,-1.9 1.7,-5.3 0,-7.6 -1.3,-1.7 -3.1,-3 -4.8,-4.5 -2.6,-2.3 -4.9,-4.8 -7,-7.5 -0.6,-0.9 -1.9,-0.1 -1.3,0.7 z"
         id="path69"
         fill="#161616" />
      <path
         d="m 688.5,123.6 c 3,4.1 8.7,9.9 14.3,8.2 0.9,-0.3 0.5,-1.7 -0.4,-1.4 -4.8,1.5 -10.1,-4 -12.6,-7.5 -0.6,-0.8 -1.9,-0.1 -1.3,0.7 z m -4.4,7 c 3.3,4.5 8.1,7.1 13.7,7.4 1,0.1 1,-1.4 0,-1.5 -5,-0.3 -9.4,-2.7 -12.4,-6.7 -0.6,-0.8 -1.9,0 -1.3,0.8 z m -3.2,9 c 4.7,4.9 12.5,5 17.2,0 0.7,-0.7 -0.4,-1.8 -1.1,-1.1 -4.1,4.4 -10.9,4.3 -15,0 -0.7,-0.7 -1.8,0.4 -1.1,1.1 z m 1,-34.8 c 11.1,7.3 19.1,19.6 33,22 0.9,0.2 1.4,-1.3 0.4,-1.4 -13.7,-2.3 -21.7,-14.6 -32.6,-21.8 -0.9,-0.7 -1.6,0.6 -0.8,1.2 z"
         id="path70"
         fill="#161616" />
      <path
         d="m 680.7,137.5 c -3.6,-4.9 -0.6,-15.4 8.1,-25.3 9.8,5.7 19.5,11.5 29.3,17.2 -1.8,0 -17.6,0.2 -18.7,5.1 -0.2,0.8 0,2 1.5,3.7 5,2.4 13.4,5.6 24.2,5.9 5.6,0.1 10.5,-0.6 14.3,-1.5 20.4,20.6 56.3,51.7 109.1,74.3 46.4,19.8 88,25.5 115.5,27.1 -0.9,11.8 -1.8,23.5 -2.7,35.3 C 916,267.3 854.6,244.5 793.6,198.7 772.8,183.1 755,167 739.8,151.5 c -14,2.3 -22.7,-0.1 -28.2,-2.9 -4.7,-2.4 -7.7,-5.4 -13.9,-5.9 -4.1,-0.3 -7.6,0.7 -12.1,-1.5 -0.5,-0.2 -3.4,-1.7 -4.9,-3.7 z"
         id="path71"
         fill="#6d6c6c"
         opacity="0.2" />
      <path
         d="m 809.5,208.1 c 14,7.5 30.2,15.1 48.7,21.6 40.3,14.3 76.8,18.8 104.7,19.8 -0.4,10.2 -0.7,20.5 -1.1,30.7 -29,-6.8 -65.4,-18.7 -104,-40.3 -18.5,-10.3 -34.5,-21.2 -48.3,-31.8 z"
         id="path72"
         fill="#6d6c6c"
         opacity="0.14" />
      <path
         d="m 967.6,236.6 c -5.7,12.9 -6,23.6 -6.5,42.8 -0.4,14.5 0.6,30.1 8.4,71.1 9.5,49.6 14,57.6 15.5,83.9 1.2,20.6 -0.4,37.5 -1.9,48.7 12.6,6.9 33.7,16.3 61.3,18.4 48.8,3.7 84.9,-17.8 97.3,-26 1.5,-31.4 3,-62.9 4.6,-94.3 -5.5,-26.8 -12,-47.8 -16.7,-61.6 -14.8,-43.5 -28.6,-64.1 -19.8,-85.9 4.9,-12.1 14.6,-19.5 21.3,-23.6 -4.7,-3.6 -54,-40.1 -107.8,-21.2 -5.6,1.9 -41,14.4 -55.7,47.7 z"
         id="path73"
         stroke="#161616"
         stroke-width="2"
         fill="#ffffff" />
      <path
         d="m 1023.1,188.8 c 15,24 23.4,45.2 28.2,60 0,0 23.5,71.4 6.3,167.2 -3.7,20.4 -10.3,49.4 -23.3,82.6 5,1.1 11,2 17.8,2.3 0,0 10.5,0.5 22.3,-1 14.4,-1.9 39.1,-9.6 68.2,-24.4 l 1.5,-100.4 c -7.4,-28.3 -14.9,-51 -20.5,-66.9 -13.5,-37.9 -23,-55.7 -15.2,-74.5 5.1,-12.3 15.5,-19.9 23.6,-24.3 -10.6,-7 -30.2,-17.9 -57,-22.1 -22.1,-3.4 -40.3,-1 -51.9,1.5 z"
         id="path74"
         fill="#6d6c6c"
         opacity="0.19" />
      <path
         d="m 1036.8,186.5 c 16.1,19.8 34.9,48.7 46.5,86.8 32.9,108.8 -21.2,204.2 -33.7,225.1 10.5,-0.1 22.8,-1 36.2,-3.6 23.9,-4.6 43,-12.8 56.7,-20.1 0.5,-31.2 1,-62.4 1.5,-93.5 -8.5,-28.9 -16.5,-56.3 -27.4,-93.5 -7.4,-25.5 -13.2,-46.4 -2.3,-63.1 5.3,-8.1 12.7,-12.6 18.3,-15.2 -31.9,-7.7 -63.9,-15.3 -95.8,-22.9 z"
         id="path75"
         fill="#6d6c6c"
         opacity="0.11" />
      <path
         d="m 1029.4,390.8 c -0.3,-21.4 -0.5,-42.7 -0.8,-64.1 51.3,-2.6 102.6,-5.2 154,-7.8 1.8,19.8 3.6,39.6 5.5,59.4 -52.9,4.2 -105.8,8.3 -158.7,12.5 z"
         id="path76"
         stroke="#161616"
         stroke-width="2"
         fill="#ffffff" />
      <path
         d="m 1013.8,383.8 v -23.4 c 65.9,-4.9 131.8,-9.9 197.7,-14.8 0.5,9.6 1,19.3 1.6,28.9 -66.4,3 -132.9,6.2 -199.3,9.3 z"
         id="path77"
         stroke="#161616"
         stroke-width="2"
         fill="#ffffff" />
      <path
         d="m 1019.3,348.6 c 0.8,11.5 1.6,22.9 2.3,34.4 61,-4.9 121.9,-9.9 182.9,-14.8 0.5,-10.4 1,-20.8 1.6,-31.3 -62.3,3.9 -124.6,7.8 -186.8,11.7 z"
         id="path78"
         stroke="#161616"
         stroke-width="2"
         fill="#ffffff" />
      <path
         d="m 1004.4,374.4 c 1.8,45.6 3.6,91.2 5.5,136.8 68,-7.6 136,-15.1 204,-22.7 l 6.3,-134.4 c -72,6.8 -143.9,13.5 -215.8,20.3 z"
         id="path79"
         stroke="#161616"
         stroke-width="2"
         fill="#ffffff" />
      <path
         d="m 1016,392.2 c 30.9,-4.1 61.8,-7 92.9,-8.8 1.4,-0.1 1.4,-2.3 0,-2.3 -31.1,1.8 -62.1,4.7 -92.9,8.8 -1.4,0.2 -1.4,2.5 0,2.3 z m 34.5,6.1 c 23.7,-3 47.4,-6.1 71.2,-9.1 1.4,-0.2 1.4,-2.4 0,-2.3 -23.7,3 -47.4,6.1 -71.2,9.1 -1.4,0.3 -1.4,2.5 0,2.3 z m 113.9,64 c -0.4,6.3 -0.4,12.7 0.2,19 0.1,1.4 2.4,1.4 2.3,0 -0.6,-6.3 -0.7,-12.7 -0.2,-19 0.1,-1.4 -2.2,-1.4 -2.3,0 z"
         id="path80"
         fill="#161616" />
      <path
         d="m 1165.4,462.5 c 12.4,0.3 24.7,-0.4 37,-2 l -1.1,-1.1 c -0.2,5.8 0,11.5 0.4,17.2 0.1,1.4 2.4,1.4 2.3,0 -0.5,-5.7 -0.6,-11.5 -0.4,-17.2 0,-0.6 -0.5,-1.2 -1.1,-1.1 -12.3,1.6 -24.6,2.2 -37,2 -1.6,-0.1 -1.6,2.1 -0.1,2.2 z"
         id="path81"
         fill="#161616" />
      <path
         d="m 1166.3,483.1 c 12.3,0.2 24.4,-1.1 36.4,-3.8 1.4,-0.3 0.8,-2.5 -0.6,-2.2 -11.8,2.6 -23.7,3.9 -35.8,3.7 -1.4,0 -1.4,2.2 0,2.3 z m 4.7,-13.6 c 7.6,0.5 15.1,0.1 22.7,-1.1 1.4,-0.2 0.8,-2.4 -0.6,-2.2 -7.3,1.2 -14.7,1.5 -22.1,1 -1.4,-0.1 -1.4,2.2 0,2.3 z m 4.8,6.3 c 7.9,-0.2 15.5,-1.7 23,-4.4 1.3,-0.5 0.8,-2.7 -0.6,-2.2 -7.2,2.7 -14.7,4.1 -22.4,4.4 -1.4,-0.1 -1.5,2.2 0,2.2 z"
         id="path82"
         fill="#161616" />
      <path
         d="m 1036.7,506 c 1.8,-42.2 3.6,-84.4 5.3,-126.7 58.4,-4.7 116.9,-9.3 175.3,-14 -1.3,40 -2.7,80 -4,120 -58.9,6.9 -117.7,13.8 -176.6,20.7 z"
         id="path83"
         fill="#6d6c6c"
         opacity="0.2" />
      <path
         d="m 1195.3,338 c 0.3,11.6 -0.3,25.4 -3.3,40.7 -7.4,37.6 -25.2,64.7 -37.3,80 8.2,10.9 16.4,21.8 24.7,32.7 l -75.3,8.7 c 4,-45.8 8,-91.6 12,-137.3 -1.3,-6 -2.7,-12 -4,-18 27.7,-2.4 55.5,-4.6 83.2,-6.8 z"
         id="path84"
         fill="#6d6c6c"
         opacity="0.2" />
      <path
         d="m 1125.7,207.4 c 20.9,-2.8 45.8,45.2 55.7,79.7 11.4,39.7 6.4,74 2.3,92.1 -8,35.5 -24.6,60.5 -35,74 1.6,5.3 5.3,19.7 -0.8,35.5 -9,23.1 -33.4,34.2 -35.3,32.1 -0.6,-0.7 0.6,-3.6 10.1,-14.5 -2,2.1 -16.4,16.4 -32.6,13 -2.8,-0.6 -6.3,-1.3 -8.3,-4.1 -4.7,-6.8 3.1,-22.2 19.7,-39.3 -18.1,4.5 -22.9,3.3 -23.8,1.3 -2.3,-4.8 16.2,-18.4 22.9,-23.4 9.9,-7.3 18.8,-12.3 24.9,-15.4 17.1,-35.5 16.2,-63.2 14.7,-76.2 -2.2,-19.2 -9.4,-40.1 -10.8,-44.1 -4,-11.5 -5.9,-14.1 -13.9,-34.8 -12.9,-33.2 -12.9,-38.9 -12.4,-43.3 1.8,-13.2 10.7,-31 22.6,-32.6 z"
         id="path85"
         stroke="#161616"
         stroke-width="2"
         fill="#ffffff" />
      <path
         d="m 1082.2,512.4 c 11.1,-6.3 20.8,-14.4 28.9,-24.2 1.2,-1.5 -0.9,-3.6 -2.1,-2.1 -7.9,9.6 -17.4,17.6 -28.3,23.8 -1.7,0.8 -0.2,3.4 1.5,2.5 z m 9.8,6.7 c 11,-5.7 20.4,-13.6 28,-23.4 1.2,-1.5 -1.4,-3 -2.6,-1.5 -7.2,9.4 -16.4,16.9 -26.9,22.3 -1.7,0.9 -0.2,3.5 1.5,2.6 z"
         id="path86"
         fill="#161616" />
      <path
         d="m 1117.3,212.2 c -19.9,17.3 61.3,93.2 47.4,179.4 -9.5,59.1 -48.9,97.7 -48.9,97.7 -11,11 -31.7,24.5 -29.2,29.2 1.8,3.4 14.3,0.3 18.8,-1.1 8.5,-2.6 14.4,-7 17.7,-9.9 -5,5.6 -10.7,12.5 -9.5,13.9 1.7,1.8 15.9,-5.6 24.8,-16 15.4,-18 13.2,-43 11.7,-53.2 3.6,-4.7 8.3,-11.3 13.1,-19.7 4.4,-7.5 17.1,-30.9 22.6,-62.7 9.7,-56.3 -10.2,-100.7 -18.2,-118.1 -7.2,-15.5 -19.4,-41.2 -37.9,-42.3 -2.4,-0.3 -8.5,-0.6 -12.4,2.8 z"
         id="path87"
         fill="#6d6c6c"
         opacity="0.17" />
      <path
         d="m 1184.7,368.2 c -5.4,15.7 -11.8,32.2 -19.4,49.5 -5.4,12.3 -10.9,23.8 -16.5,34.7 -2.8,9 -8.1,22.5 -18.6,36.4 -11,14.6 -23.1,23.5 -31.2,28.6 2.3,0.1 5.1,-0.1 8.2,-0.9 7.8,-1.8 13,-6.1 15.6,-8.7 -3,3.8 -6.1,7.5 -9.1,11.3 2.4,-0.4 6.2,-1.1 10.4,-3 22,-9.9 26.6,-36.8 26.9,-38.6 0.8,-4.9 1.3,-13.3 -1.7,-23.7 7.2,-8.5 16.3,-21.2 23.6,-38.3 8.1,-18.8 10.8,-35.7 11.8,-47.3 z"
         id="path88"
         fill="#6d6c6c"
         opacity="0.22" />
      <path
         d="m 944.6,141.6 c -16.1,18.4 -5,44.1 -3.5,47.6 5.6,13 20.1,31.5 38.5,30 13.4,-1.2 21.9,-12.5 24,-15.5 14.8,-21.3 9.9,-62 -15.1,-72.5 -13.8,-5.8 -32.8,-2.4 -43.9,10.4 z"
         id="path89"
         fill="#e5261f" />
      <path
         d="m 985.2,158 c 0.7,7.9 9,9.6 14.6,22.6 4,9.4 4,18.6 3.3,25.2 6.5,0.6 18.5,0.9 32.1,-4.3 10.7,-4.1 18.2,-10 22.7,-14.1 -2.1,-4.7 -5.2,-11.6 -8.9,-19.8 -16,-34.9 -18.6,-37.9 -22.5,-39.4 -15.6,-5.9 -42.6,15.1 -41.3,29.8 z"
         id="path90"
         stroke="#161616"
         stroke-width="2"
         fill="#ffffff" />
      <path
         d="m 927.6,54.7 c -3.4,4.8 -5.5,10.7 -5.8,36 -0.2,21.6 1,41.3 3,58.8 l 13.5,-7.8 c 2,4.9 5.4,11.6 11.2,18.1 11.5,12.9 25.5,17.3 31.7,18.9 6.5,-1.6 22.7,-6.6 35,-21.9 8.1,-10.2 10.7,-20.3 11.3,-22.6 3.7,-15.1 0.1,-27.6 -1.8,-32.8 2.4,-1.1 6.1,-3.2 8.9,-7 5.9,-8 7.5,-22.3 0.2,-27.1 -5.4,-3.6 -15,-1.5 -22.2,5.9 -1.6,-3.7 -4.1,-8.8 -8.1,-14.1 -1,-1.3 -8.5,-11.1 -17.7,-16.2 -17.7,-10.2 -47,-5.4 -59.2,11.8 z"
         id="path91"
         stroke="#161616"
         stroke-width="2"
         fill="#ffffff" />
      <path
         d="m 920.3,86.1 c -4,-0.7 -11.4,-2.8 -14.9,-8.9 -6,-10.3 2.8,-26 5,-29.9 1.8,-3.3 6.6,-11.2 27,-25.5 15.5,-10.9 23.3,-16.3 31.7,-18.9 29.8,-8.9 57.1,6.5 62.2,9.4 10.7,6.1 17.5,12.7 22.9,17.9 8.3,8 17.6,17.2 28,27.8 26.7,34.6 36.1,66.2 39.9,85.1 4.3,21.4 8.7,43.2 -4.1,56 -12.8,12.8 -36.2,10.2 -50.5,4.1 -19.9,-8.5 -28.4,-26.5 -35,-40.4 -11.2,-23.8 -11.9,-46.6 -10.8,-61.4 10,-2.9 15.1,-12.3 12.8,-19.4 -1.8,-5.6 -8.5,-11.2 -15.4,-9.2 -5.3,1.5 -9.1,7 -8.8,13.4 -4.8,-0.1 -17.6,-1.2 -29.8,-10.4 -8.9,-6.7 -13.4,-14.7 -15.5,-19.1 -5.5,0.7 -16.5,2.7 -27.6,10.7 -9.3,6.4 -14.5,14.1 -17.1,18.7 z"
         id="path92"
         fill="#e5261f" />
      <path
         d="m 986.5,105.2 c 12,14.5 15.8,29.8 15.8,29.8 3.9,17.2 -1.7,31.8 -4.2,37.7 6.3,-4.8 12.7,-9.6 19,-14.4 4.4,14.6 8.7,29.1 13.1,43.7 3.3,-0.3 10.1,-1.5 16.9,-6.3 5.2,-3.7 8.3,-8 10,-10.7 -8.1,-7.5 -23.6,-24.1 -30.7,-50.2 -3.4,-12.6 -3.9,-23.8 -3.5,-32.2 9.1,-3.7 13.8,-12.6 11.9,-20 -1.4,-5.4 -6.9,-11.9 -14,-10.9 -5.9,0.9 -10.8,6.7 -10.7,13.8 -4.5,0 -15.1,-0.5 -26.2,-7.2 -11.5,-6.9 -17,-16.5 -19.1,-20.6 0.5,19.2 6.4,30.3 11.7,36.9 3.5,4.5 5.1,4.7 10,10.6 z"
         id="path93"
         fill="#6d6c6c"
         opacity="0.24" />
      <path
         d="m 940,101 c -1.1,4 -1,8.1 0.5,12 0.5,1.4 2.4,1.5 2.9,0 1.2,-3.6 1.2,-7.4 0.1,-11 -0.6,-1.8 -3.5,-1.1 -2.9,0.8 1,3.2 0.9,6.3 -0.1,9.5 h 2.9 c -1.3,-3.4 -1.5,-6.9 -0.5,-10.4 0.5,-2 -2.3,-2.8 -2.9,-0.9 z m -3.6,-6.2 c 2.6,-1.6 5.8,-1.3 8,0.8 1.4,1.3 3.5,-0.8 2.1,-2.1 -3.1,-3 -7.9,-3.6 -11.6,-1.3 -1.6,1 -0.1,3.6 1.5,2.6 z m 10.8,25.4 c 1.9,0 1.9,-3 0,-3 -2,0 -2,3 0,3 z m 6.6,-8.7 v 0.3 c 0,0.8 0.7,1.5 1.5,1.5 0.8,0 1.5,-0.7 1.5,-1.5 v -0.3 c 0,-0.8 -0.7,-1.5 -1.5,-1.5 -0.8,0 -1.5,0.6 -1.5,1.5 z m 0.3,7.5 c 1.9,0 1.9,-3 0,-3 -1.9,0 -1.9,3 0,3 z m -41.2,-13.4 c -1.2,4 -1.1,8.1 0.3,12 0.5,1.4 2.4,1.4 2.9,0 1.2,-3.6 1.3,-7.4 0.3,-11 -0.5,-1.9 -3.4,-1.1 -2.9,0.8 0.9,3.2 0.8,6.3 -0.3,9.4 h 2.9 c -1.2,-3.4 -1.4,-6.9 -0.3,-10.4 0.5,-1.9 -2.4,-2.7 -2.9,-0.8 z m -1.7,-7.5 c 2.1,-1.1 5,-0.6 6.4,1.4 1.1,1.5 3.7,0 2.6,-1.5 -2.5,-3.3 -6.8,-4.4 -10.5,-2.5 -1.7,0.9 -0.2,3.5 1.5,2.6 z m 33.7,54.4 c 7.7,-1.4 14.4,-5.5 19.4,-11.6 0.9,-1.1 -0.7,-2.7 -1.6,-1.6 -4.7,5.8 -11,9.6 -18.4,11 -1.4,0.3 -0.8,2.5 0.6,2.2 z"
         id="path94"
         fill="#161616" />
      <path
         d="m 960.5,139.5 c 1.8,0.6 3.3,1.5 4.6,2.8 1,1 2.6,-0.6 1.6,-1.6 -1.6,-1.6 -3.5,-2.7 -5.6,-3.4 -1.4,-0.4 -2,1.8 -0.6,2.2 z"
         id="path95"
         fill="#161616" />
      <path
         d="m 1022.8,8.7 c 12.7,17.6 29,42.5 44.5,74.3 16.4,33.6 28.4,58.9 19.1,68.9 -12.3,13.3 -54.8,-7.8 -61.6,-11.3 1.4,9.1 4.9,23.6 15.2,38.1 5.2,7.3 14.3,20.2 31.1,26.2 10.1,3.6 19.1,3.4 22.6,3.1 4.7,-0.3 10.1,-0.7 16,-3.9 0,0 7.7,-4.1 12.9,-12.5 7.9,-12.8 3.7,-30.1 -1.9,-51.8 -6.7,-26 -15.7,-43.3 -24.5,-60.4 -2.2,-4.2 -4.8,-9.1 -9,-14.8 -4.2,-5.8 -7.3,-8.9 -20.3,-21.4 -19.3,-18.7 -22.3,-21.4 -28.1,-25.3 -6.4,-4.4 -12.1,-7.3 -16,-9.2 z"
         id="path96"
         fill="#371b9b"
         opacity="0.45" />
      <path
         d="m 998.7,178.8 c 0.8,2.3 2.6,8.8 0,16 -3.9,10.7 -14.7,14.3 -16.4,14.8 -12.3,4 -27.8,-2.3 -38.2,-16 1.4,3.6 4.5,10 10.9,15.6 3.2,2.8 11.9,10.3 24.2,9.4 2.1,-0.2 15.6,-1.2 21.8,-12.9 4.5,-8.3 3.5,-18.7 -2.3,-26.9 z"
         id="path97"
         fill="#371b9b"
         opacity="0.43" />
    </g>
  </g>
</svg>
