<?xml version="1.0" encoding="UTF-8" standalone="no"?>
<svg
   viewBox="0 0 50 50"
   width="50px"
   height="50px"
   version="1.1"
   id="svg1"
   sodipodi:docname="zalo.svg"
   inkscape:version="1.3.2 (091e20e, 2023-11-25)"
   xmlns:inkscape="http://www.inkscape.org/namespaces/inkscape"
   xmlns:sodipodi="http://sodipodi.sourceforge.net/DTD/sodipodi-0.dtd"
   xmlns="http://www.w3.org/2000/svg"
   xmlns:svg="http://www.w3.org/2000/svg">
  <defs
     id="defs1" />
  <sodipodi:namedview
     id="namedview1"
     pagecolor="#ffffff"
     bordercolor="#666666"
     borderopacity="1.0"
     inkscape:showpageshadow="2"
     inkscape:pageopacity="0.0"
     inkscape:pagecheckerboard="0"
     inkscape:deskcolor="#d1d1d1"
     inkscape:zoom="4.72"
     inkscape:cx="25.105932"
     inkscape:cy="25"
     inkscape:window-width="1312"
     inkscape:window-height="411"
     inkscape:window-x="0"
     inkscape:window-y="38"
     inkscape:window-maximized="0"
     inkscape:current-layer="svg1" />
  <path
     d="M 5.952381,0 C 2.6791475,0 0,2.6791475 0,5.952381 V 44.04762 C 0,47.320852 2.6791475,50 5.952381,50 H 44.04762 C 47.320852,50 50,47.320852 50,44.04762 V 5.952381 C 50,2.6791475 47.320852,0 44.04762,0 Z m 0,2.3809524 h 7.833427 C 9.534512,6.804388 7.1428572,12.521527 7.1428572,18.45238 c 0,6.142858 2.5120904,12.023624 7.0359008,16.476006 0.142856,0.25 0.261626,1.475817 -0.285994,2.892485 -0.345238,0.892856 -1.035993,2.059058 -2.369326,2.499534 -0.511904,0.166668 -0.844867,0.668712 -0.809152,1.204428 0.03571,0.535714 0.429501,0.988002 0.953311,1.095144 3.416666,0.678572 5.629186,-0.346075 7.4149,-1.155599 1.607142,-0.738094 2.668248,-1.238653 4.2992,-0.571987 3.333332,1.29762 6.880207,1.964751 10.546875,1.964751 4.873433,0 9.561261,-1.189605 13.690476,-3.436569 v 4.627047 c 0,1.98629 -1.585138,3.571428 -3.571428,3.571428 H 5.952381 c -1.9862905,0 -3.5714286,-1.585138 -3.5714286,-3.571428 V 5.952381 c 0,-1.9862905 1.5851381,-3.5714286 3.5714286,-3.5714286 z M 34.52381,13.095238 c 0.654762,0 1.190476,0.535714 1.190476,1.190476 V 25 c 0,0.654762 -0.535714,1.190476 -1.190476,1.190476 -0.654762,0 -1.190476,-0.535714 -1.190476,-1.190476 V 14.285714 c 0,-0.654762 0.535714,-1.190476 1.190476,-1.190476 z m -17.857144,1.190476 h 5.952382 c 0.428572,0 0.834355,0.237537 1.048641,0.618489 0.202382,0.369048 0.188988,0.833056 -0.03721,1.202102 l -4.820034,7.703219 h 3.808594 c 0.654762,0 1.190477,0.535714 1.190477,1.190476 0,0.654762 -0.535715,1.190476 -1.190477,1.190476 h -5.952381 c -0.428571,0 -0.834355,-0.237537 -1.048641,-0.618489 -0.202381,-0.369048 -0.188988,-0.833054 0.03721,-1.202102 l 4.820034,-7.703219 h -3.808595 c -0.654762,0 -1.190476,-0.535714 -1.190476,-1.190476 0,-0.654762 0.535714,-1.190476 1.190476,-1.190476 z m 11.309524,3.571428 c 0.72619,0 1.404111,0.201453 2.011255,0.534785 0.214284,-0.309524 0.548269,-0.534785 0.964935,-0.534785 0.654762,0 1.190478,0.535716 1.190478,1.190478 V 25 c 0,0.654762 -0.535716,1.190476 -1.190478,1.190476 -0.416666,0 -0.750651,-0.225261 -0.964935,-0.534785 -0.607144,0.333334 -1.285065,0.534785 -2.011255,0.534785 -2.297618,0 -4.166666,-1.869048 -4.166666,-4.166666 0,-2.29762 1.869048,-4.166668 4.166666,-4.166668 z m 13.095238,0 c 2.29762,0 4.166668,1.869048 4.166668,4.166668 0,2.297618 -1.869048,4.166666 -4.166668,4.166666 -2.297618,0 -4.166666,-1.869048 -4.166666,-4.166666 0,-2.29762 1.869048,-4.166668 4.166666,-4.166668 z M 27.97619,20.238096 c -0.123512,0 -0.244024,0.01347 -0.360398,0.03721 -0.232746,0.04748 -0.449451,0.139183 -0.639416,0.267391 -0.189964,0.12821 -0.353097,0.291342 -0.481305,0.481307 -0.128209,0.189965 -0.219912,0.406668 -0.267393,0.639416 -0.02374,0.116374 -0.03721,0.236886 -0.03721,0.360398 0,0.123512 0.01347,0.244024 0.03721,0.360398 0.02374,0.116373 0.0572,0.227958 0.102305,0.334821 0.04511,0.106858 0.100978,0.209613 0.165084,0.304595 0.06411,0.09498 0.137835,0.182012 0.218565,0.262742 0.08073,0.08073 0.167759,0.154459 0.262741,0.218564 0.189965,0.128208 0.406669,0.219912 0.639416,0.267392 0.116374,0.02374 0.236886,0.03721 0.360398,0.03721 0.123512,0 0.244024,-0.01347 0.360398,-0.03721 0.814616,-0.166179 1.425316,-0.883929 1.425316,-1.748512 0,-0.988096 -0.797618,-1.785714 -1.785714,-1.785714 z m 13.095238,0 c -0.123512,0 -0.244024,0.01347 -0.360398,0.03721 -0.116372,0.02374 -0.227957,0.0572 -0.33482,0.102305 -0.106859,0.04511 -0.209613,0.100978 -0.304596,0.165084 -0.09498,0.06411 -0.182012,0.137836 -0.262741,0.218564 -0.161459,0.161459 -0.293434,0.353609 -0.383649,0.567337 -0.04511,0.106859 -0.07856,0.218448 -0.102304,0.334822 -0.02374,0.116374 -0.03721,0.236886 -0.03721,0.360398 0,0.123512 0.01347,0.244024 0.03721,0.360398 0.02374,0.116373 0.0572,0.227957 0.102304,0.33482 0.04511,0.106859 0.100978,0.209613 0.165085,0.304596 0.06411,0.09498 0.137836,0.182012 0.218564,0.262741 0.08073,0.08073 0.16776,0.15446 0.262741,0.218565 0.09498,0.06411 0.197732,0.119978 0.304596,0.165084 0.106858,0.04511 0.218448,0.07857 0.33482,0.102305 0.116374,0.02374 0.236886,0.03721 0.360398,0.03721 0.123512,0 0.244024,-0.01347 0.360398,-0.03721 0.814616,-0.16618 1.425316,-0.88393 1.425316,-1.748512 0,-0.988096 -0.797618,-1.785714 -1.785714,-1.785713 z"
     id="path1"
     style="fill:#ffffff;stroke-width:1.19048" />
</svg>
