<?xml version="1.0" encoding="UTF-8" standalone="no"?>
<svg
   width="50"
   height="50"
   viewBox="0 0 50 50"
   fill="none"
   version="1.1"
   id="svg8"
   sodipodi:docname="zalo.svg"
   inkscape:version="1.3.2 (091e20e, 2023-11-25)"
   xml:space="preserve"
   xmlns:inkscape="http://www.inkscape.org/namespaces/inkscape"
   xmlns:sodipodi="http://sodipodi.sourceforge.net/DTD/sodipodi-0.dtd"
   xmlns="http://www.w3.org/2000/svg"
   xmlns:svg="http://www.w3.org/2000/svg"><defs
     id="defs8" /><sodipodi:namedview
     id="namedview8"
     pagecolor="#ffffff"
     bordercolor="#666666"
     borderopacity="1.0"
     inkscape:showpageshadow="2"
     inkscape:pageopacity="0.0"
     inkscape:pagecheckerboard="0"
     inkscape:deskcolor="#d1d1d1"
     inkscape:zoom="4.892724"
     inkscape:cx="30.964346"
     inkscape:cy="-12.77407"
     inkscape:window-width="1512"
     inkscape:window-height="916"
     inkscape:window-x="0"
     inkscape:window-y="38"
     inkscape:window-maximized="1"
     inkscape:current-layer="svg8" /><path
     style="fill:#ffffff;stroke-width:0.132065;fill-opacity:1"
     d="m 4.4766159,49.91809 c -2.135496,-0.530002 -3.78588903,-2.194094 -4.35926402,-4.395444 -0.296905,-1.139888 -0.296905,-39.8815029 0,-41.0213861 C 0.69875187,2.2691062 2.2699929,0.69786471 4.5021429,0.11646251 c 1.139888,-0.2969009 39.8815061,-0.2969009 41.0213881,0 2.23215,0.5814022 3.803391,2.15264369 4.384798,4.38479739 0.170358,0.6540648 0.196998,3.4212778 0.196998,20.4659041 0,14.099736 -0.04228,19.908772 -0.148609,20.409425 -0.466406,2.196452 -2.393069,4.124035 -4.579244,4.581427 C 44.318515,50.179572 5.3770209,50.14156 4.4766159,49.918106 Z M 45.411802,47.463177 c 0.681895,-0.252269 1.810043,-1.387791 2.03893,-2.05226 0.18467,-0.536113 0.387254,-5.871738 0.222938,-5.871738 -0.04491,0 -0.392702,0.172598 -0.772938,0.383545 -1.181116,0.655267 -3.743804,1.604812 -5.578048,2.066828 -2.679347,0.674876 -4.511463,0.897752 -7.395409,0.899648 -3.640714,0.0025 -6.566362,-0.495305 -9.772865,-1.662497 -2.101143,-0.764838 -2.566836,-0.747105 -4.754368,0.18101 -2.191542,0.929817 -2.349702,0.988102 -3.301643,1.216689 -1.273936,0.305906 -2.365196,0.371766 -3.526171,0.212805 -1.305411,-0.17874 -1.526873,-0.284977 -1.760714,-0.844634 -0.303892,-0.727307 -0.01026,-1.36157 0.773182,-1.670034 1.491738,-0.587362 2.596116,-2.431426 2.614219,-4.365169 l 0.0086,-0.912071 -0.969481,-1.031856 C 10.589583,31.194632 8.5163879,27.257257 7.6605749,23.420891 6.0966969,16.410455 7.8659059,9.3112731 12.597899,3.60923 c 0.508685,-0.6129662 0.924963,-1.1634781 0.925063,-1.2233621 10e-5,-0.05988 -1.886705,-0.089597 -4.1929031,-0.066033 -3.926773,0.040126 -4.230834,0.060393 -4.787383,0.3191052 -0.885755,0.4117442 -1.397029,0.9045515 -1.80916,1.7438051 L 2.3635879,5.1360614 V 24.94592 c 0,15.929539 0.03365,19.904821 0.171885,20.294677 0.416847,1.175774 1.482906,2.10656 2.686915,2.345962 0.316202,0.06287 9.3704861,0.104373 20.1206381,0.09222 16.803757,-0.01902 19.619109,-0.04923 20.068801,-0.215601 z M 37.44502,40.271478 c 2.754978,-0.366762 5.339853,-1.118327 7.707839,-2.241088 0.798997,-0.378835 1.706702,-0.849695 2.017112,-1.046343 L 47.734357,36.626498 47.698265,20.88128 47.662173,5.1360614 47.292246,4.3827455 C 46.880115,3.5434919 46.368841,3.0506846 45.483086,2.6389404 44.893741,2.3649833 44.774162,2.3623762 31.132597,2.3261497 L 17.376406,2.2896137 16.539334,3.0025347 C 16.078945,3.3946409 15.28626,4.203008 14.777807,4.7989084 12.106066,7.9301527 10.452552,11.364641 9.8117779,15.113797 c -0.385371,2.254796 -0.302854,5.575866 0.1901621,7.653035 0.897946,3.783222 2.621361,7.027649 5.185871,9.762698 1.178144,1.256483 1.400895,1.687642 1.472222,2.849579 0.07688,1.252393 -0.239796,2.677483 -0.872801,3.927755 l -0.517592,1.022311 0.348378,-0.07851 c 0.191607,-0.04316 1.002107,-0.347634 1.801104,-0.676565 2.872786,-1.182667 3.188176,-1.270452 4.556269,-1.268156 1.137887,0.0019 1.39384,0.05286 2.750887,0.547479 1.832723,0.668009 3.750554,1.148076 5.576096,1.395804 1.811988,0.245888 5.379373,0.257004 7.142709,0.02227 z M 15.828265,25.876384 c -0.483751,-0.483752 -0.432628,-1.109811 0.171084,-2.095183 0.272391,-0.444582 1.367587,-2.206712 2.433784,-3.915843 l 1.938528,-3.107513 -2.070599,-0.06603 c -1.290492,-0.04116 -2.178562,-0.127847 -2.357165,-0.230102 -0.372448,-0.213235 -0.619243,-0.949292 -0.458912,-1.36868 0.06648,-0.173894 0.25275,-0.43503 0.413932,-0.580302 0.270621,-0.243912 0.515284,-0.267677 3.196032,-0.31045 3.356375,-0.05355 3.978014,0.0094 4.415716,0.44709 0.612351,0.61235 0.505132,0.87047 -2.081264,5.010487 -1.314781,2.10456 -2.419616,3.902304 -2.455182,3.994988 -0.05079,0.132359 0.39304,0.168518 2.068522,0.168518 2.08877,0 2.139931,0.0067 2.457347,0.32416 0.445333,0.445339 0.445476,1.223223 3e-4,1.703574 l -0.323859,0.349445 H 19.664477 16.15243 Z m 11.03349,0.200664 c -1.106824,-0.337904 -2.073402,-1.164292 -2.667662,-2.280753 -0.435713,-0.818591 -0.433073,-2.671645 0.005,-3.560174 0.383138,-0.77699 1.221186,-1.612669 1.996964,-1.991322 0.791034,-0.386103 2.268661,-0.473008 3.118574,-0.183414 0.543814,0.185296 0.646341,0.186924 0.892974,0.01417 0.153244,-0.107337 0.52852,-0.195156 0.833951,-0.195156 0.442624,0 0.610874,0.07062 0.82904,0.347974 0.26122,0.332086 0.273717,0.507233 0.273717,3.835908 v 3.487935 l -0.324158,0.324164 c -0.409072,0.409066 -1.239076,0.448673 -1.577015,0.07525 -0.220655,-0.243825 -0.238613,-0.243825 -0.880307,0 -0.669203,0.254277 -1.880143,0.314989 -2.501151,0.125409 z m 2.067296,-2.584991 c 0.442725,-0.290084 0.837066,-0.974411 0.83766,-1.453644 0.0012,-0.912711 -0.87332,-1.780827 -1.793823,-1.780827 -0.930498,0 -1.885247,1.134943 -1.715577,2.039363 0.233603,1.245193 1.637126,1.873012 2.67174,1.195108 z m 4.74583,2.302156 -0.341904,-0.406329 v -5.675252 c 0,-6.209256 0.0063,-6.260863 0.765864,-6.575605 0.485115,-0.200943 0.97267,-0.07944 1.36768,0.340843 l 0.309672,0.329486 0.0401,5.437215 c 0.02202,2.99047 0.0031,5.637002 -0.04178,5.881185 -0.198374,1.076025 -1.427423,1.46732 -2.099623,0.668457 z m 6.039388,0.161267 c -1.408689,-0.486781 -2.557735,-1.925199 -2.763584,-3.459564 -0.159281,-1.18722 0.481074,-2.830865 1.406149,-3.609265 0.915211,-0.770097 1.414488,-0.939507 2.76802,-0.939215 1.103808,2.64e-4 1.33501,0.04262 1.923335,0.352556 1.414687,0.745281 2.20357,2.049415 2.224168,3.676878 0.01101,0.870082 -0.04122,1.102224 -0.422189,1.876394 -0.259762,0.527855 -0.654235,1.071332 -0.980014,1.350186 -1.104353,0.945282 -2.740071,1.241274 -4.155885,0.75203 z m 2.427141,-2.491502 c 0.643532,-0.421664 0.904514,-1.540499 0.531347,-2.277969 -0.237075,-0.468521 -0.984055,-0.928423 -1.507958,-0.928423 -2.009205,0 -2.431344,2.952173 -0.496669,3.473425 0.3814,0.102759 1.110627,-0.02942 1.47328,-0.267033 z"
     id="path1" /></svg>
